<?xml version="1.0" encoding="UTF-8"?>
<svg version="1.1" xmlns="http://www.w3.org/2000/svg" width="365" height="90">
<path d="M0 0 C2.00349261 0.31165441 4.00326516 0.64763503 6 1 C7.67225729 0.69595322 9.34080104 0.36871088 11 0 C11.66 0.33 12.32 0.66 13 1 C14.67654729 0.72057545 16.34608154 0.39171753 18 0 C18.495 1.485 18.495 1.485 19 3 C20.98 2.67 22.96 2.34 25 2 C25.66 2.99 26.32 3.98 27 5 C28.98723268 5.70381157 30.98777953 6.3711811 33 7 C33.99 7.99 33.99 7.99 35 9 C36.31747324 9.69748583 37.64914193 10.36959957 39 11 C39 12.32 39 13.64 39 15 C40.65 15.33 42.3 15.66 44 16 C44.495 18.475 44.495 18.475 45 21 C46.485 21.495 46.485 21.495 48 22 C48.70381157 23.98723268 49.3711811 25.98777953 50 28 C50.66 28.33 51.32 28.66 52 29 C51.95875 29.928125 51.9175 30.85625 51.875 31.8125 C51.72863661 35.15809719 51.72863661 35.15809719 54 38 C53.68770276 39.33841672 53.35169068 40.67139075 53 42 C53.32550502 43.66821323 53.65846063 45.33499557 54 47 C53.67 47.99 53.34 48.98 53 50 C53.33 50.99 53.66 51.98 54 53 C53.34 53.99 52.68 54.98 52 56 C52.020625 56.845625 52.04125 57.69125 52.0625 58.5625 C52.041875 59.366875 52.02125 60.17125 52 61 C51.01 61.66 50.02 62.32 49 63 C48.29618843 64.98723268 47.6288189 66.98777953 47 69 C46.34 69.66 45.68 70.32 45 71 C44.71125 71.680625 44.4225 72.36125 44.125 73.0625 C43 75 43 75 40.875 75.75 C40.25625 75.8325 39.6375 75.915 39 76 C38.505 77.98 38.505 77.98 38 80 C37.21625 80.0825 36.4325 80.165 35.625 80.25 C32.85250896 80.72806339 32.85250896 80.72806339 31.6875 83.0625 C31.460625 83.701875 31.23375 84.34125 31 85 C29.68 85 28.36 85 27 85 C26.34 85.99 25.68 86.98 25 88 C23.33385392 88.04165365 21.66614608 88.04165365 20 88 C19.34 88.66 18.68 89.32 18 90 C15.99650739 89.68834559 13.99673484 89.35236497 12 89 C10.32774271 89.30404678 8.65919896 89.63128912 7 90 C6.01 89.505 6.01 89.505 5 89 C4.195625 89.185625 3.39125 89.37125 2.5625 89.5625 C0 90 0 90 -3 88 C-4.65549531 87.61500109 -6.3222433 87.27206865 -8 87 C-8.33 86.01 -8.66 85.02 -9 84 C-9.598125 84.226875 -10.19625 84.45375 -10.8125 84.6875 C-11.534375 84.790625 -12.25625 84.89375 -13 85 C-14.4375 83.75 -14.4375 83.75 -16 82 C-16.886875 81.505 -17.77375 81.01 -18.6875 80.5 C-19.450625 80.005 -20.21375 79.51 -21 79 C-21 78.01 -21 77.02 -21 76 C-21.763125 75.95875 -22.52625 75.9175 -23.3125 75.875 C-26 75 -26 75 -27.6875 72.3125 C-29 69 -29 69 -30 65.75 C-30.79957456 62.70577941 -30.79957456 62.70577941 -34 61 C-34.04384447 59.33391013 -34.0396713 57.66619446 -34 56 C-34.350625 55.319375 -34.70125 54.63875 -35.0625 53.9375 C-36.25784124 51.46712811 -35.70560023 50.58720084 -35 48 C-35.29299023 46.32577014 -35.62690101 44.65821773 -36 43 C-36 40.66666667 -36 38.33333333 -36 36 C-35.34 36 -34.68 36 -34 36 C-34.061875 34.88625 -34.12375 33.7725 -34.1875 32.625 C-34.125625 31.42875 -34.06375 30.2325 -34 29 C-33.01 28.34 -32.02 27.68 -31 27 C-29.78715124 23.94570927 -29.78715124 23.94570927 -29 21 C-28.34 21 -27.68 21 -27 21 C-26.9175 20.21625 -26.835 19.4325 -26.75 18.625 C-26.37875 17.325625 -26.37875 17.325625 -26 16 C-24.0625 14.9375 -24.0625 14.9375 -22 14 C-21.67 13.319375 -21.34 12.63875 -21 11.9375 C-20.505 10.9784375 -20.505 10.9784375 -20 10 C-18.67696283 9.6278958 -17.34262065 9.29369827 -16 9 C-15.34 8.01 -14.68 7.02 -14 6 C-11.375 5.8125 -11.375 5.8125 -9 6 C-8.34 4.68 -7.68 3.36 -7 2 C-6.21625 2.04125 -5.4325 2.0825 -4.625 2.125 C-1.83883881 2.28728734 -1.83883881 2.28728734 0 0 Z " fill="#F9FAF7" transform="translate(36,0)"/>
<path d="M0 0 C2.5625 2.125 2.5625 2.125 4 5 C4 6.98 4 8.96 4 11 C36.01 11.33 68.02 11.66 101 12 C100.67 12.99 100.34 13.98 100 15 C98.35 15 96.7 15 95 15 C94.67 17.31 94.34 19.62 94 22 C92.55367188 22.07347656 92.55367188 22.07347656 91.078125 22.1484375 C89.81484375 22.22320313 88.5515625 22.29796875 87.25 22.375 C85.99703125 22.44460937 84.7440625 22.51421875 83.453125 22.5859375 C80.37127793 22.95548025 78.55077516 23.30765879 76 25 C74.00474006 27.99288991 74 29.23085596 74 33 C74.32613281 32.51789062 74.65226563 32.03578125 74.98828125 31.5390625 C75.42527344 30.90742187 75.86226562 30.27578125 76.3125 29.625 C76.74175781 28.99851562 77.17101562 28.37203125 77.61328125 27.7265625 C79 26 79 26 82 24 C88.91927512 23.34102142 88.91927512 23.34102142 92.5625 25.5625 C94 28 94 28 94.125 31.4375 C93.05756625 34.81770689 92.17477528 36.98327473 89.2734375 39.11328125 C83.35755011 41.42068063 75.63456296 41.34066789 69.69140625 39.1484375 C67.41029375 37.54017113 66.19147816 35.77213958 65.51953125 33.0625 C65.26428697 29.42009518 65.78385439 27.37409817 67.625 24.1875 C73.33592846 18.92743432 78.07976393 18.70276769 85.5859375 18.89453125 C86.38257813 18.92933594 87.17921875 18.96414062 88 19 C88 17.68 88 16.36 88 15 C81.07 15 74.14 15 67 15 C66.319375 17.825625 65.63875 20.65125 64.9375 23.5625 C64.61060181 24.8764978 64.61060181 24.8764978 64.27709961 26.21704102 C63.12449424 31.20303055 62.93006645 34.98678933 64 40 C59.71 40 55.42 40 51 40 C51.33 39.01 51.66 38.02 52 37 C52.66 37 53.32 37 54 37 C54.26554688 35.91460937 54.53109375 34.82921875 54.8046875 33.7109375 C55.16133082 32.26559353 55.5181088 30.82028278 55.875 29.375 C56.04902344 28.66214844 56.22304687 27.94929688 56.40234375 27.21484375 C57.42854338 23.07203784 58.58790729 19.03273322 60 15 C58.02 15.33 56.04 15.66 54 16 C54.99 16.99 54.99 16.99 56 18 C56.83939819 21.96292802 56.84553124 25.59683312 54.7265625 29.11328125 C49.88206562 34.82033489 49.88206562 34.82033489 45.50390625 35.23828125 C44.53324219 35.26277344 43.56257813 35.28726563 42.5625 35.3125 C41.59441406 35.34988281 40.62632812 35.38726562 39.62890625 35.42578125 C37 35 37 35 35.1484375 33.13671875 C34 31 34 31 34.0625 28.5 C35.25203408 25.32790912 36.23261826 23.98683817 39 22 C42.41686834 21.12717621 45.73725806 20.36862903 49 22 C48.19583018 19.4246953 48.19583018 19.4246953 46 17 C42.71567619 15.94753553 39.41675391 15.42949815 36 15 C35.73445313 16.08539062 35.46890625 17.17078125 35.1953125 18.2890625 C34.83866918 19.73440647 34.4818912 21.17971722 34.125 22.625 C33.95097656 23.33785156 33.77695313 24.05070312 33.59765625 24.78515625 C32.57145662 28.92796216 31.41209271 32.96726678 30 37 C30.66 37 31.32 37 32 37 C32 37.99 32 38.98 32 40 C28.27124612 40.14560195 24.54322566 40.23417043 20.8125 40.3125 C19.75740234 40.35439453 18.70230469 40.39628906 17.61523438 40.43945312 C9.7538053 40.56345043 9.7538053 40.56345043 5.90625 37.6875 C4.96265625 36.3571875 4.96265625 36.3571875 4 35 C3.55011719 34.40574219 3.10023438 33.81148437 2.63671875 33.19921875 C1.7578125 31.79947917 0.87890625 30.39973958 0 29 C2.71250433 28.44154323 5.37279134 27.95526504 8.125 27.625 C10.92436559 27.16545106 10.92436559 27.16545106 12.875 25.9375 C14.73193849 22.73943927 14.17925295 19.64481003 14 16 C10.04 15.67 6.08 15.34 2 15 C1.9175 16.216875 1.835 17.43375 1.75 18.6875 C1.07049528 25.03630525 -0.99458444 30.9650983 -3 37 C-2.34 37 -1.68 37 -1 37 C-1 37.99 -1 38.98 -1 40 C-4.96 40 -8.92 40 -13 40 C-13 39.01 -13 38.02 -13 37 C-12.34 36.67 -11.68 36.34 -11 36 C-10.15715119 33.97996841 -10.15715119 33.97996841 -9.4921875 31.52734375 C-9.22792969 30.62822266 -8.96367187 29.72910156 -8.69140625 28.80273438 C-8.42199219 27.85720703 -8.15257812 26.91167969 -7.875 25.9375 C-7.45927734 24.5134082 -7.45927734 24.5134082 -7.03515625 23.06054688 C-6.3497708 20.70896576 -5.67173867 18.35550883 -5 16 C-6.65 15.67 -8.3 15.34 -10 15 C-10.103125 15.928125 -10.20625 16.85625 -10.3125 17.8125 C-10.77244758 21.14711994 -11.61824133 24.27081353 -12.5625 27.5 C-13.80437114 31.870663 -14.30140306 35.47895415 -14 40 C-17.96 40 -21.92 40 -26 40 C-25.67 39.01 -25.34 38.02 -25 37 C-24.34 36.67 -23.68 36.34 -23 36 C-22.08968728 33.65613191 -22.08968728 33.65613191 -21.375 30.9375 C-21.11460937 30.01839844 -20.85421875 29.09929688 -20.5859375 28.15234375 C-20.39257812 27.44207031 -20.19921875 26.73179688 -20 26 C-23.02453832 25.34726844 -25.90003914 24.89862434 -29 25 C-31.80400957 26.73276023 -31.80400957 26.73276023 -33 30 C-33.29878749 33.03345267 -33.23809712 35.96426175 -33 39 C-36.465 39.495 -36.465 39.495 -40 40 C-41.01924246 33.78630501 -41.62926746 29.51648654 -38 24 C-39.32 23.67 -40.64 23.34 -42 23 C-42.0825 23.86625 -42.165 24.7325 -42.25 25.625 C-43.45422731 31.04402289 -46.03418923 34.57716176 -50.4375 37.875 C-55.83858496 41.02224875 -61.94547242 40.93027312 -68 40 C-72.70284149 37.74289627 -72.70284149 37.74289627 -74.125 34.1875 C-73.95352584 29.81490889 -71.7759562 28.26174854 -69 25 C-69.27942455 23.32345271 -69.60828247 21.65391846 -70 20 C-68.75 17.6875 -68.75 17.6875 -66 16 C-62.30950515 15.66594659 -58.69482411 15.77066609 -55 16 C-54.67 16.66 -54.34 17.32 -54 18 C-53.67 17.67 -53.34 17.34 -53 17 C-47.26388889 16.72685185 -47.26388889 16.72685185 -45 17 C-44.34 17.66 -43.68 18.32 -43 19 C-40.80511347 19.33731066 -40.80511347 19.33731066 -38.28125 19.34375 C-37.34925781 19.37339844 -36.41726562 19.40304688 -35.45703125 19.43359375 C-34.48121094 19.45550781 -33.50539062 19.47742188 -32.5 19.5 C-30.57269889 19.54328153 -28.64556232 19.59495445 -26.71875 19.65625 C-25.43387695 19.68428711 -25.43387695 19.68428711 -24.12304688 19.71289062 C-22 20 -22 20 -20 22 C-19.01 19.69 -18.02 17.38 -17 15 C-34.49 15.33 -51.98 15.66 -70 16 C-69.67 14.68 -69.34 13.36 -69 12 C-51.51 11.67 -34.02 11.34 -16 11 C-15.67 9.02 -15.34 7.04 -15 5 C-10.69904872 0.05390603 -6.5182391 -1.53370332 0 0 Z M-6.625 4.125 C-8.55651159 6.75887944 -8.21205536 8.81916956 -8 12 C-6.35 12 -4.7 12 -3 12 C-3 9.03 -3 6.06 -3 3 C-5.05533986 2.81026334 -5.05533986 2.81026334 -6.625 4.125 Z M20 15 C20.14107747 16.45880109 20.28802415 17.91703551 20.4375 19.375 C20.51871094 20.18710937 20.59992188 20.99921875 20.68359375 21.8359375 C20.89090114 24.04272805 20.89090114 24.04272805 22 26 C23.32 26 24.64 26 26 26 C27.19287411 22.12315913 28 19.08378077 28 15 C25.36 15 22.72 15 20 15 Z M-63 20 C-62.67 21.32 -62.34 22.64 -62 24 C-60.02 24.495 -60.02 24.495 -58 25 C-57.01 23.02 -56.02 21.04 -55 19 C-59.14093698 18.79029441 -59.14093698 18.79029441 -63 20 Z M-50 21 C-50.66 23.31 -51.32 25.62 -52 28 C-51.34 28.66 -50.68 29.32 -50 30 C-49.67 27.03 -49.34 24.06 -49 21 C-49.33 21 -49.66 21 -50 21 Z M44 24 C42.26352052 25.67488528 42.26352052 25.67488528 41 28 C41.22197813 30.6984589 41.22197813 30.6984589 42 33 C43.62493901 31.87890434 43.62493901 31.87890434 45 30 C45.25048636 26.87450983 45.25048636 26.87450983 45 24 C44.67 24 44.34 24 44 24 Z M-64.1875 28.1875 C-66.2433504 29.88250211 -66.2433504 29.88250211 -66.375 32.5625 C-66.21896136 35.17528109 -66.21896136 35.17528109 -64 37 C-60.58428147 37.50031206 -60.58428147 37.50031206 -57 37 C-54.55901182 35.14579161 -54.55901182 35.14579161 -53 33 C-53.928125 32.9071875 -53.928125 32.9071875 -54.875 32.8125 C-57 32 -57 32 -58.25 29.4375 C-58.62125 28.2309375 -58.62125 28.2309375 -59 27 C-61.97541303 26.76145407 -61.97541303 26.76145407 -64.1875 28.1875 Z M85 27 C82.5705484 30.6441774 82.83820425 32.71241272 83 37 C85.7972908 34.93243723 86.02692273 33.85559629 86.6875 30.3125 C86.790625 29.219375 86.89375 28.12625 87 27 C86.34 27 85.68 27 85 27 Z M11 31 C11.66 32.65 12.32 34.3 13 36 C16.465 35.505 16.465 35.505 20 35 C20 35.66 20 36.32 20 37 C20.99 37 21.98 37 23 37 C23.66 34.36 24.32 31.72 25 29 C17.77967794 28.7006013 17.77967794 28.7006013 11 31 Z " fill="#E27931" transform="translate(173,4)"/>
<path d="M0 0 C0 0.99 0 1.98 0 3 C-0.804375 3.2475 -1.60875 3.495 -2.4375 3.75 C-5.11544473 4.72953272 -5.11544473 4.72953272 -5.9375 6.9375 C-6.20896722 9.31450092 -6.20896722 9.31450092 -4 12 C-1.37302936 12.22137393 1.00893964 12.28162025 3.625 12.1875 C4.33140625 12.17396484 5.0378125 12.16042969 5.765625 12.14648438 C7.51074128 12.1111104 9.25546608 12.05730221 11 12 C11 13.32 11 14.64 11 16 C5.39 16 -0.22 16 -6 16 C-6 16.66 -6 17.32 -6 18 C-4.948125 17.7525 -3.89625 17.505 -2.8125 17.25 C1 17 1 17 3.875 18.625 C6.32130235 21.35910263 7.08331502 22.33413894 7 26 C5.6049797 30.39173058 3.97143092 33.30920468 0.1875 36 C-3.3700907 37.11610689 -6.29267394 37.22243956 -10 37 C-9.67 37.33 -9.34 37.66 -9 38 C-9 38.66 -9 39.32 -9 40 C-13.29 40 -17.58 40 -22 40 C-22 39.34 -22 38.68 -22 38 C-22.55429687 37.81824219 -23.10859375 37.63648438 -23.6796875 37.44921875 C-24.76636719 37.07216797 -24.76636719 37.07216797 -25.875 36.6875 C-26.59429687 36.44386719 -27.31359375 36.20023438 -28.0546875 35.94921875 C-30 35 -30 35 -32 32 C-31.88482657 25.89580828 -30.21797261 23.1221096 -26 19 C-22.0427223 16.70894449 -18.50902727 16.8231754 -14 17 C-14 16.67 -14 16.34 -14 16 C-19.94 16 -25.88 16 -32 16 C-32.33 18.64 -32.66 21.28 -33 24 C-33.76239069 27.40056442 -34.61370185 30.76829209 -35.4765625 34.14453125 C-36.24803377 37.05939605 -36.24803377 37.05939605 -35 40 C-38.96 40 -42.92 40 -47 40 C-46.67 39.01 -46.34 38.02 -46 37 C-45.34 37 -44.68 37 -44 37 C-44.33 36.34 -44.66 35.68 -45 35 C-45.67546875 35.04640625 -46.3509375 35.0928125 -47.046875 35.140625 C-54.24426451 35.43184885 -54.24426451 35.43184885 -57.625 33.5 C-59.55412323 29.99250321 -59.76830063 26.85627818 -59 23 C-57.87479621 20.70109225 -56.61439732 19.01799665 -55 17 C-56.32 17 -57.64 17 -59 17 C-59.86759552 20.26742273 -60.71673443 23.53936481 -61.5625 26.8125 C-61.80935547 27.74126953 -62.05621094 28.67003906 -62.31054688 29.62695312 C-62.53935547 30.51962891 -62.76816406 31.41230469 -63.00390625 32.33203125 C-63.32597046 33.56530151 -63.32597046 33.56530151 -63.65454102 34.82348633 C-64.19876753 37.17208545 -64.19876753 37.17208545 -63 40 C-67.66666667 40 -72.33333333 40 -77 40 C-77.73992187 40.05800781 -78.47984375 40.11601563 -79.2421875 40.17578125 C-81.90015475 40.31380626 -84.35918717 40.34668694 -87 40 C-89.4375 37.75 -89.4375 37.75 -91 35 C-91.5775 34.29875 -92.155 33.5975 -92.75 32.875 C-94 31 -94 31 -94 28 C-92.7625 28.04125 -91.525 28.0825 -90.25 28.125 C-86.99716438 28.125 -84.71812283 27.95704844 -82 26 C-80.63376326 23.26752652 -80.871574 21.01801098 -81 18 C-82.66342837 16.33657163 -84.7825709 16.63951903 -87.0625 16.4375 C-87.98160156 16.35371094 -88.90070313 16.26992188 -89.84765625 16.18359375 C-90.91306641 16.09271484 -90.91306641 16.09271484 -92 16 C-92.67885987 18.49723452 -93.34317427 20.99696141 -94 23.5 C-94.28617187 24.54414062 -94.28617187 24.54414062 -94.578125 25.609375 C-95.85677012 30.5412919 -96.18357474 34.90580091 -96 40 C-99.96 40 -103.92 40 -108 40 C-108 39.34 -108 38.68 -108 38 C-107.01 37.34 -106.02 36.68 -105 36 C-104.20201782 33.58392583 -104.20201782 33.58392583 -103.8125 30.875 C-103.65394531 29.96492188 -103.49539062 29.05484375 -103.33203125 28.1171875 C-103.22246094 27.41851562 -103.11289063 26.71984375 -103 26 C-103.61875 27.60875 -103.61875 27.60875 -104.25 29.25 C-105.94848448 33.2265466 -108.06002711 36.03001356 -112 38 C-115.38575801 38.41289732 -118.61955655 38.47903224 -122 38 C-124.6875 35.875 -124.6875 35.875 -126 33 C-126.08812113 28.85830672 -125.09939681 27.13969281 -122.6875 23.75 C-119.85322805 20.84981475 -117.91501 19.2725615 -113.88671875 18.69921875 C-108.48395137 18.67042958 -104.81811552 19.53968569 -100 22 C-100 20.35 -100 18.7 -100 17 C-107.92 17 -115.84 17 -124 17 C-124.845625 20.238125 -125.69125 23.47625 -126.5625 26.8125 C-126.83263916 27.82932861 -127.10277832 28.84615723 -127.38110352 29.89379883 C-127.58662842 30.69841553 -127.79215332 31.50303223 -128.00390625 32.33203125 C-128.21861572 33.15421143 -128.4333252 33.9763916 -128.65454102 34.82348633 C-129.19876753 37.17208545 -129.19876753 37.17208545 -128 40 C-131.96 40 -135.92 40 -140 40 C-139.67 39.01 -139.34 38.02 -139 37 C-138.01 36.505 -138.01 36.505 -137 36 C-136.08514427 33.19521805 -136.08514427 33.19521805 -135.375 29.9375 C-135.11460937 28.83277344 -134.85421875 27.72804688 -134.5859375 26.58984375 C-134.39257812 25.73519531 -134.19921875 24.88054687 -134 24 C-134.99 23.67 -135.98 23.34 -137 23 C-136.773125 24.051875 -136.54625 25.10375 -136.3125 26.1875 C-135.96361262 30.44392602 -136.31847817 31.76368055 -139 35 C-143.17471633 37.53687453 -147.23187229 37.73625501 -152 37 C-154.50160818 35.12379387 -155.61945652 33.76108697 -157 31 C-157.06996014 29.29297265 -157.08440154 27.58331997 -157.0625 25.875 C-157.05347656 24.96492188 -157.04445312 24.05484375 -157.03515625 23.1171875 C-157.02355469 22.41851562 -157.01195312 21.71984375 -157 21 C-155.35 21 -153.7 21 -152 21 C-151.67 24.63 -151.34 28.26 -151 32 C-149.02 32 -147.04 32 -145 32 C-144.67 29.36 -144.34 26.72 -144 24 C-144.99 23.67 -145.98 23.34 -147 23 C-146.67 21.68 -146.34 20.36 -146 19 C-141.71 19 -137.42 19 -133 19 C-132.67 18.01 -132.34 17.02 -132 16 C-139.92 16 -147.84 16 -156 16 C-155.67 14.68 -155.34 13.36 -155 12 C-108.14 12 -61.28 12 -13 12 C-13.33 10.02 -13.66 8.04 -14 6 C-10.23219888 -0.05539465 -6.79223779 -0.12815543 0 0 Z M-75 16 C-74.34 17.32 -73.68 18.64 -73 20 C-73.375 23.25 -73.375 23.25 -74 26 C-72.35 26 -70.7 26 -69 26 C-68.01 22.7 -67.02 19.4 -66 16 C-68.97 16 -71.94 16 -75 16 Z M-48.875 17.9375 C-51.63974308 21.92198267 -51.88594876 25.24095282 -52 30 C-49.80485127 30.9593157 -49.80485127 30.9593157 -47 31 C-43.19263854 28.53641317 -41.47989349 27.06885367 -39.625 22.9375 C-38.86126157 19.84847162 -38.86126157 19.84847162 -39 16 C-43.18774791 15.58943648 -45.33324208 15.55066314 -48.875 17.9375 Z M-114 22 C-117.52273754 26.51350747 -118.45732667 29.28341664 -118 35 C-115.41851492 34.64393309 -114.17954253 34.16671807 -112.25 32.375 C-110.56245198 29.16865877 -110.79423953 26.56651486 -111 23 C-111.99 22.67 -112.98 22.34 -114 22 Z M-18 21 C-20.20807663 22.15661157 -22.22677434 23.22677434 -24 25 C-24.04092937 27.33297433 -24.04241723 29.66705225 -24 32 C-20.41672247 33.00217064 -20.41672247 33.00217064 -17 32 C-16.31068656 29.65092125 -16.31068656 29.65092125 -15.875 26.9375 C-15.62363281 25.55884766 -15.62363281 25.55884766 -15.3671875 24.15234375 C-15.24601563 23.44207031 -15.12484375 22.73179688 -15 22 C-15.99 21.67 -16.98 21.34 -18 21 Z M-7 22 C-7.50615298 23.26839526 -8.00469099 24.53983102 -8.5 25.8125 C-8.7784375 26.52019531 -9.056875 27.22789063 -9.34375 27.95703125 C-10.1529162 30.11841216 -10.1529162 30.11841216 -10 33 C-6.77060081 33.35882213 -5.38790237 33.27258004 -2.6875 31.375 C-0.55737493 28.3770462 -0.59969123 26.60277895 -1 23 C-2.06645115 21.70366379 -2.06645115 21.70366379 -4.5625 21.9375 C-5.366875 21.958125 -6.17125 21.97875 -7 22 Z M-84 31 C-82.63016497 34.16115776 -82.0109362 34.9927092 -79 37 C-76.32854463 36.19838209 -76.32854463 36.19838209 -74 35 C-73.67 35.99 -73.34 36.98 -73 38 C-70.98513431 34.12479873 -70.98513431 34.12479873 -70 30 C-75.41735797 29.06597276 -78.80451575 28.79191919 -84 31 Z " fill="#2E3192" transform="translate(354,46)"/>
<path d="M0 0 C0.886875 0.185625 1.77375 0.37125 2.6875 0.5625 C5.85178811 0.98042484 7.94839642 0.80777742 11 0 C11.495 1.485 11.495 1.485 12 3 C13.98 2.67 15.96 2.34 18 2 C18.66 2.99 19.32 3.98 20 5 C21.98723268 5.70381157 23.98777953 6.3711811 26 7 C26.99 7.99 26.99 7.99 28 9 C29.31747324 9.69748583 30.64914193 10.36959957 32 11 C32 12.32 32 13.64 32 15 C33.65 15.33 35.3 15.66 37 16 C37.495 18.475 37.495 18.475 38 21 C39.485 21.495 39.485 21.495 41 22 C41.70381157 23.98723268 42.3711811 25.98777953 43 28 C43.66 28.33 44.32 28.66 45 29 C44.95875 29.928125 44.9175 30.85625 44.875 31.8125 C44.72863661 35.15809719 44.72863661 35.15809719 47 38 C46.68770276 39.33841672 46.35169068 40.67139075 46 42 C46.32550502 43.66821323 46.65846063 45.33499557 47 47 C46.67 47.99 46.34 48.98 46 50 C46.33 50.99 46.66 51.98 47 53 C46.34 53.99 45.68 54.98 45 56 C45.020625 56.845625 45.04125 57.69125 45.0625 58.5625 C45.041875 59.366875 45.02125 60.17125 45 61 C44.01 61.66 43.02 62.32 42 63 C41.29618843 64.98723268 40.6288189 66.98777953 40 69 C39.34 69.66 38.68 70.32 38 71 C37.71125 71.680625 37.4225 72.36125 37.125 73.0625 C36 75 36 75 33.875 75.75 C33.25625 75.8325 32.6375 75.915 32 76 C31.505 77.98 31.505 77.98 31 80 C30.21625 80.0825 29.4325 80.165 28.625 80.25 C25.85250896 80.72806339 25.85250896 80.72806339 24.6875 83.0625 C24.460625 83.701875 24.23375 84.34125 24 85 C22.68 85 21.36 85 20 85 C19.34 85.99 18.68 86.98 18 88 C16.33385392 88.04165365 14.66614608 88.04165365 13 88 C12.34 88.66 11.68 89.32 11 90 C8.99650739 89.68834559 6.99673484 89.35236497 5 89 C3.32774271 89.30404678 1.65919896 89.63128912 0 90 C-0.99 89.505 -0.99 89.505 -2 89 C-2.804375 89.185625 -3.60875 89.37125 -4.4375 89.5625 C-7 90 -7 90 -10 88 C-11.65549531 87.61500109 -13.3222433 87.27206865 -15 87 C-15.33 86.01 -15.66 85.02 -16 84 C-16.598125 84.226875 -17.19625 84.45375 -17.8125 84.6875 C-18.534375 84.790625 -19.25625 84.89375 -20 85 C-21.4375 83.75 -21.4375 83.75 -23 82 C-23.886875 81.505 -24.77375 81.01 -25.6875 80.5 C-26.450625 80.005 -27.21375 79.51 -28 79 C-28 78.01 -28 77.02 -28 76 C-28.763125 75.95875 -29.52625 75.9175 -30.3125 75.875 C-33 75 -33 75 -34.6875 72.3125 C-36 69 -36 69 -37 65.75 C-37.79957456 62.70577941 -37.79957456 62.70577941 -41 61 C-41.04384447 59.33391013 -41.0396713 57.66619446 -41 56 C-41.350625 55.319375 -41.70125 54.63875 -42.0625 53.9375 C-43.25784124 51.46712811 -42.70560023 50.58720084 -42 48 C-42.29299023 46.32577014 -42.62690101 44.65821773 -43 43 C-43 40.66666667 -43 38.33333333 -43 36 C-42.34 36 -41.68 36 -41 36 C-41.061875 34.88625 -41.12375 33.7725 -41.1875 32.625 C-41.125625 31.42875 -41.06375 30.2325 -41 29 C-40.01 28.34 -39.02 27.68 -38 27 C-36.78715124 23.94570927 -36.78715124 23.94570927 -36 21 C-35.34 21 -34.68 21 -34 21 C-33.9175 20.21625 -33.835 19.4325 -33.75 18.625 C-33 16 -33 16 -31 14.875 C-30.34 14.58625 -29.68 14.2975 -29 14 C-28.67 13.01 -28.34 12.02 -28 11 C-26.02 11 -24.04 11 -22 11 C-21.67 12.32 -21.34 13.64 -21 15 C-21.86625 15.61875 -22.7325 16.2375 -23.625 16.875 C-30.26125549 22.44190627 -34.17464925 30.45887031 -35 39 C-36.09017699 51.5902147 -34.35147154 60.61423278 -26.125 70.75 C-25.42375 71.4925 -24.7225 72.235 -24 73 C-23.67 72.67 -23.34 72.34 -23 72 C-23.99 71.01 -24.98 70.02 -26 69 C-18.86580342 70.45926748 -13.15074075 74.2226978 -7 78 C-7 77.34 -7 76.68 -7 76 C-3.04 76 0.92 76 5 76 C5 75.34 5 74.68 5 74 C3.23470405 72.78309467 3.23470405 72.78309467 1 72 C-1.23470405 72.78309467 -1.23470405 72.78309467 -3 74 C-2.01 72.515 -2.01 72.515 -1 71 C-4.04913228 69.98888907 -4.04913228 69.98888907 -7 71 C-10.67329964 71.13357453 -13.49852959 71.1671568 -17 70 C-17.495 69.01 -17.495 69.01 -18 68 C-18.825 67.67 -19.65 67.34 -20.5 67 C-23 66 -23 66 -24 64 C-22.35 64.33 -20.7 64.66 -19 65 C-20.11873055 63.78548682 -20.11873055 63.78548682 -22.4375 62.6875 C-25.09154203 60.93971622 -25.89570822 59.9113147 -27 57 C-25.68 57.66 -24.36 58.32 -23 59 C-23.433125 58.61070313 -23.86625 58.22140625 -24.3125 57.8203125 C-27.0125174 55.10779502 -28.82516233 53.18101129 -29.3984375 49.30859375 C-29.37743232 46.84748702 -29.26578002 44.44616058 -29 42 C-28.34 42 -27.68 42 -27 42 C-27 40.02 -27 38.04 -27 36 C-26.67 36 -26.34 36 -26 36 C-25.67 38.31 -25.34 40.62 -25 43 C-25.66 43 -26.32 43 -27 43 C-25.515 45.475 -25.515 45.475 -24 48 C-23.01 47.01 -22.02 46.02 -21 45 C-21.33 46.65 -21.66 48.3 -22 50 C-21.34 50 -20.68 50 -20 50 C-19.82984375 50.60328125 -19.6596875 51.2065625 -19.484375 51.828125 C-18.03810329 56.59774447 -16.86872957 59.66488831 -13 63 C-13 63.66 -13 64.32 -13 65 C-12.34 65 -11.68 65 -11 65 C-11 65.66 -11 66.32 -11 67 C-2.15967082 67.77546747 6.16776465 68.19354532 15 67 C15 66.34 15 65.68 15 65 C15.66 65 16.32 65 17 65 C17.66 63.35 18.32 61.7 19 60 C19.66 60 20.32 60 21 60 C21.66 58.35 22.32 56.7 23 55 C23.33 55 23.66 55 24 55 C24 56.98 24 58.96 24 61 C24.99 60.01 24.99 60.01 26 59 C26.66 59 27.32 59 28 59 C28.99 58.34 29.98 57.68 31 57 C29.54744301 60.82946843 27.57104439 62.12050295 24 64 C25.32 64 26.64 64 28 64 C26 67 26 67 23.875 67.6875 C23.25625 67.790625 22.6375 67.89375 22 68 C22 68.99 22 69.98 22 71 C27.38113959 69.8041912 31.44755052 68.38135436 35 64 C39.56321958 54.87356085 40.87431927 43.29377955 38.31640625 33.33984375 C37.36191403 31.09421268 36.27121794 29.08161937 35 27 C34.5875 26.24203125 34.175 25.4840625 33.75 24.703125 C29.02088226 16.69586882 21.51913114 11.0068249 12.546875 8.4296875 C3.95017541 6.97932407 -4.65893775 7.59664308 -13 10 C-13.33 10.33 -13.66 10.66 -14 11 C-8.9498355 10.48212815 -8.9498355 10.48212815 -4 9.4375 C-0.686949 8.71277009 2.6171693 8.94361949 6 9 C6 10.98 6 12.96 6 15 C3.1875 15.625 3.1875 15.625 0 16 C-0.99 15.34 -1.98 14.68 -3 14 C-3 13.01 -3 12.02 -3 11 C-3.66 11 -4.32 11 -5 11 C-4.505 13.475 -4.505 13.475 -4 16 C-5.32 16.33 -6.64 16.66 -8 17 C-8.99 15.68 -9.98 14.36 -11 13 C-10.505 15.475 -10.505 15.475 -10 18 C-10.99 17.01 -11.98 16.02 -13 15 C-12.67 16.32 -12.34 17.64 -12 19 C-12.99 19 -13.98 19 -15 19 C-14.67 19.66 -14.34 20.32 -14 21 C-15.9375 20.1875 -15.9375 20.1875 -18 19 C-19 16 -19 16 -18 13 C-18.66 13 -19.32 13 -20 13 C-20.33 11.35 -20.66 9.7 -21 8 C-19.34385343 7.61781233 -17.67542976 7.28604898 -16 7 C-15.67 7.33 -15.34 7.66 -15 8 C-14.87625 7.360625 -14.7525 6.72125 -14.625 6.0625 C-14.315625 5.0415625 -14.315625 5.0415625 -14 4 C-11.69027779 2.8451389 -9.52482667 2.50496533 -7 2 C-6.34 1.67 -5.68 1.34 -5 1 C-2.875 1.9375 -2.875 1.9375 -1 3 C-0.67 2.01 -0.34 1.02 0 0 Z " fill="#F3DECA" transform="translate(43,0)"/>
<path d="M0 0 C0.99 0 1.98 0 3 0 C4.09930585 2.56504699 4.97730557 4.86383343 5.4375 7.625 C6.07733418 10.32652211 6.8096095 11.33530322 9 13 C9.66 13 10.32 13 11 13 C13.87640144 9.23855197 14.20668345 6.65037756 14 2 C14.33 1.34 14.66 0.68 15 0 C16.32 0.33 17.64 0.66 19 1 C19.144375 1.7425 19.28875 2.485 19.4375 3.25 C19.623125 4.1575 19.80875 5.065 20 6 C20.12375 7.051875 20.12375 7.051875 20.25 8.125 C21.37173213 10.92933031 23.39322899 11.66319435 26 13 C29.12020906 9.61977352 29.09545521 7.48639498 29 3 C29.66 2.01 30.32 1.02 31 0 C32.32 0.33 33.64 0.66 35 1 C35.04125 2.216875 35.0825 3.43375 35.125 4.6875 C35.53199637 8.21271475 36.31016733 9.75280133 39.0625 12 C40.5165625 12.99 40.5165625 12.99 42 14 C42.309375 13.38125 42.61875 12.7625 42.9375 12.125 C43.625 10.75 44.3125 9.375 45 8 C44.7215625 7.071875 44.7215625 7.071875 44.4375 6.125 C43.88010302 3.41764326 44.59668102 2.31134891 46 0 C49.875 0.875 49.875 0.875 51 2 C50.9175 3.093125 50.835 4.18625 50.75 5.3125 C50.59831107 9.15057817 50.59831107 9.15057817 53.5 11.4375 C54.325 11.953125 55.15 12.46875 56 13 C58.14579161 11.44098818 58.14579161 11.44098818 60 9 C60.25015873 5.41642759 60.25015873 5.41642759 60 2 C60.33 1.34 60.66 0.68 61 0 C64.875 0.875 64.875 0.875 66 2 C65.71269945 4.33944736 65.38063221 6.6739143 65 9 C65.598125 9.28875 66.19625 9.5775 66.8125 9.875 C69 11 69 11 72 13 C74.14835964 10.75256794 74.14835964 10.75256794 76 8 C75.67156616 5.93618425 75.67156616 5.93618425 75 4 C75.9375 1.75 75.9375 1.75 77 0 C78.32 0.33 79.64 0.66 81 1 C81.020625 2.19625 81.04125 3.3925 81.0625 4.625 C81.4959277 8.45135387 82.57504479 9.92133122 85.5625 12.3125 C86.20316406 12.76238281 86.84382813 13.21226563 87.50390625 13.67578125 C88.24447266 14.33126953 88.24447266 14.33126953 89 15 C89 15.99 89 16.98 89 18 C86.53199953 16.84826645 84.95216435 15.95216435 83 14 C83.43639406 16.9456599 84.14845127 18.18443946 86.0625 20.5625 C88 23 88 23 88 26 C82.25 26.125 82.25 26.125 80 25 C80 26.98 80 28.96 80 31 C79.01 31 78.02 31 77 31 C76.67 29.35 76.34 27.7 76 26 C74.02 26 72.04 26 70 26 C70.50298788 21.59885603 72.08772731 19.28804981 75 16 C74.34 16.66 73.68 17.32 73 18 C72.01 18 71.02 18 70 18 C69.01 16.515 69.01 16.515 68 15 C66.53219091 18.17352608 66.53219091 18.17352608 66 22 C67.36925842 24.36756237 69.09068295 25.99976309 71 28 C71 28.99 71 29.98 71 31 C68.20171644 30.61402985 67.1794116 30.19863427 65.25 28.0625 C64 26 64 26 64 24 C63.34 24 62.68 24 62 24 C61.71125 24.598125 61.4225 25.19625 61.125 25.8125 C60 28 60 28 58 31 C57.01 30.67 56.02 30.34 55 30 C56.10394483 27.70719151 57.23396517 25.66205032 58.6875 23.5625 C60.25168427 20.50861642 60.00849549 19.20884927 59 16 C58.67 16.66 58.34 17.32 58 18 C57.01 18 56.02 18 55 18 C54.34 17.01 53.68 16.02 53 15 C52.68180852 18.15447553 52.68180852 18.15447553 55.0625 20.5 C55.701875 21.325 56.34125 22.15 57 23 C56.505 24.485 56.505 24.485 56 26 C54.35 26 52.7 26 51 26 C50.505 28.475 50.505 28.475 50 31 C48.68 31 47.36 31 46 31 C45.67 29.35 45.34 27.7 45 26 C43.02 26 41.04 26 39 26 C39.99 23.69 40.98 21.38 42 19 C39.525 17.02 39.525 17.02 37 15 C36.18580118 18.98574205 36.18580118 18.98574205 36 23 C37.8312811 25.81099414 37.8312811 25.81099414 40 28 C40 28.99 40 29.98 40 31 C39.01 31 38.02 31 37 31 C35.04456468 28.84075874 33.61151878 26.43905546 32 24 C29.525 27.465 29.525 27.465 27 31 C26.34 30.67 25.68 30.34 25 30 C25 29.01 25 28.02 25 27 C23.02 26.67 21.04 26.34 19 26 C18.67 27.65 18.34 29.3 18 31 C17.01 31 16.02 31 15 31 C14.505 28.525 14.505 28.525 14 26 C12.02 26 10.04 26 8 26 C9.19899698 22.9168649 10.47700477 19.93720508 12 17 C10.68 17 9.36 17 8 17 C7.34 16.34 6.68 15.68 6 15 C5.13345127 18.21979366 5.13345127 18.21979366 5 22 C6.92293518 25.21829104 6.92293518 25.21829104 9 28 C8.67 28.99 8.34 29.98 8 31 C4.00003714 29.66667905 3.16217663 27.5042173 1 24 C0.401875 24.99 -0.19625 25.98 -0.8125 27 C-1.534375 27.99 -2.25625 28.98 -3 30 C-3.99 30 -4.98 30 -6 30 C-5.54067228 27.42776477 -5.0796419 26.09495764 -3.375 24.0625 C-1.6974791 22.02668343 -1.6974791 22.02668343 -2.3125 19.25 C-2.6528125 18.13625 -2.6528125 18.13625 -3 17 C-4.32 17.33 -5.64 17.66 -7 18 C-6.04071346 15.3435142 -5.23728879 13.27379476 -3.375 11.125 C-1.42428823 8.11026363 -1.93479821 5.52089641 -2 2 C-1.34 1.34 -0.68 0.68 0 0 Z M21 14 C21 18.74886351 21.98344794 19.53983734 25 23 C25.99 24.485 25.99 24.485 27 26 C28.7089129 24.4212319 28.7089129 24.4212319 30 22 C29.77131906 18.31184707 29.77131906 18.31184707 29 15 C28.01 15.495 28.01 15.495 27 16 C27 16.66 27 17.32 27 18 C26.01 18 25.02 18 24 18 C23.34 16.68 22.68 15.36 22 14 C21.67 14 21.34 14 21 14 Z M43 16 C43.33 16.66 43.66 17.32 44 18 C44.33 17.34 44.66 16.68 45 16 C44.34 16 43.68 16 43 16 Z " fill="#E68032" transform="translate(103,56)"/>
<path d="M0 0 C5.65296494 2.57929959 8.87015336 6.21044148 11.9921875 11.5625 C13.67609292 18.29812166 13.42077266 24.47176541 9.953125 30.55859375 C7.0579631 34.546102 3.23681528 37.43555349 -1.3203125 39.3125 C-8.25373922 40.25346505 -13.98194362 39.95201442 -19.703125 35.73828125 C-24.16686182 31.8028611 -26.84916542 27.63036736 -27.69140625 21.69921875 C-27.85910645 14.88269892 -26.82293567 10.51635137 -22.3203125 5.3125 C-15.76291871 -0.76508449 -8.73809971 -2.58906658 0 0 Z " fill="#FAF9F8" transform="translate(52.3203125,25.6875)"/>
<path d="M0 0 C1.3303125 0.2784375 1.3303125 0.2784375 2.6875 0.5625 C5.85178811 0.98042484 7.94839642 0.80777742 11 0 C11.495 1.485 11.495 1.485 12 3 C13.98 2.67 15.96 2.34 18 2 C18.66 2.99 19.32 3.98 20 5 C21.98723268 5.70381157 23.98777953 6.3711811 26 7 C26.66 7.66 27.32 8.32 28 9 C29.31747324 9.69748583 30.64914193 10.36959957 32 11 C32 12.32 32 13.64 32 15 C34.475 15.495 34.475 15.495 37 16 C37.495 18.475 37.495 18.475 38 21 C38.99 21.33 39.98 21.66 41 22 C41.70381157 23.98723268 42.3711811 25.98777953 43 28 C43.66 28.33 44.32 28.66 45 29 C44.95875 29.928125 44.9175 30.85625 44.875 31.8125 C44.72863661 35.15809719 44.72863661 35.15809719 47 38 C46.68770276 39.33841672 46.35169068 40.67139075 46 42 C46.32550502 43.66821323 46.65846063 45.33499557 47 47 C46.67 47.99 46.34 48.98 46 50 C46.33 50.99 46.66 51.98 47 53 C46.34 53.99 45.68 54.98 45 56 C45.020625 56.845625 45.04125 57.69125 45.0625 58.5625 C45.041875 59.366875 45.02125 60.17125 45 61 C44.01 61.66 43.02 62.32 42 63 C41.29618843 64.98723268 40.6288189 66.98777953 40 69 C39.34 69.66 38.68 70.32 38 71 C37.71125 71.680625 37.4225 72.36125 37.125 73.0625 C36 75 36 75 33.875 75.75 C33.25625 75.8325 32.6375 75.915 32 76 C31.505 77.98 31.505 77.98 31 80 C30.21625 80.0825 29.4325 80.165 28.625 80.25 C25.85250896 80.72806339 25.85250896 80.72806339 24.6875 83.0625 C24.460625 83.701875 24.23375 84.34125 24 85 C22.68 85 21.36 85 20 85 C19.34 85.99 18.68 86.98 18 88 C16.33385392 88.04165365 14.66614608 88.04165365 13 88 C12.34 88.66 11.68 89.32 11 90 C8.99650739 89.68834559 6.99673484 89.35236497 5 89 C3.32774271 89.30404678 1.65919896 89.63128912 0 90 C-0.66 89.67 -1.32 89.34 -2 89 C-2.804375 89.185625 -3.60875 89.37125 -4.4375 89.5625 C-7 90 -7 90 -10 88 C-11.65549531 87.61500109 -13.3222433 87.27206865 -15 87 C-15.33 86.01 -15.66 85.02 -16 84 C-16.639375 84.185625 -17.27875 84.37125 -17.9375 84.5625 C-18.9584375 84.7790625 -18.9584375 84.7790625 -20 85 C-21 84 -21 84 -21.0625 81.4375 C-21.0315625 80.2309375 -21.0315625 80.2309375 -21 79 C-20.67 79.66 -20.34 80.32 -20 81 C-19.01 81 -18.02 81 -17 81 C-17 80.34 -17 79.68 -17 79 C-16.030625 79.350625 -15.06125 79.70125 -14.0625 80.0625 C-10.13884788 81.22358073 -6.90172562 80.80684934 -2.91796875 80.09375 C-2.28503906 80.0628125 -1.65210937 80.031875 -1 80 C-0.34 80.66 0.32 81.32 1 82 C0.01 82.495 0.01 82.495 -1 83 C-0.34 83.33 0.32 83.66 1 84 C1 84.66 1 85.32 1 86 C1.66 86 2.32 86 3 86 C3 85.34 3 84.68 3 84 C4.03898437 83.72027344 5.07796875 83.44054687 6.1484375 83.15234375 C19.49686206 79.39093753 28.91830674 74.51367389 36 62 C39.91087978 53.55358604 40.62387992 42.31921272 38.31640625 33.33984375 C37.36191403 31.09421268 36.27121794 29.08161937 35 27 C34.5875 26.24203125 34.175 25.4840625 33.75 24.703125 C29.02088226 16.69586882 21.51913114 11.0068249 12.546875 8.4296875 C3.95017541 6.97932407 -4.65893775 7.59664308 -13 10 C-13.33 10.33 -13.66 10.66 -14 11 C-8.9498355 10.48212815 -8.9498355 10.48212815 -4 9.4375 C-0.686949 8.71277009 2.6171693 8.94361949 6 9 C6 10.98 6 12.96 6 15 C3.1875 15.625 3.1875 15.625 0 16 C-0.99 15.34 -1.98 14.68 -3 14 C-3 13.01 -3 12.02 -3 11 C-3.66 11 -4.32 11 -5 11 C-4.67 12.65 -4.34 14.3 -4 16 C-5.32 16.33 -6.64 16.66 -8 17 C-8.99 15.68 -9.98 14.36 -11 13 C-10.67 14.65 -10.34 16.3 -10 18 C-10.99 17.01 -11.98 16.02 -13 15 C-12.67 16.32 -12.34 17.64 -12 19 C-12.99 19 -13.98 19 -15 19 C-14.67 19.66 -14.34 20.32 -14 21 C-15.9375 20.1875 -15.9375 20.1875 -18 19 C-19 16 -19 16 -18 13 C-18.66 13 -19.32 13 -20 13 C-20.33 11.35 -20.66 9.7 -21 8 C-19.34385343 7.61781233 -17.67542976 7.28604898 -16 7 C-15.67 7.33 -15.34 7.66 -15 8 C-14.814375 7.0409375 -14.814375 7.0409375 -14.625 6.0625 C-14.41875 5.381875 -14.2125 4.70125 -14 4 C-11.69027779 2.8451389 -9.52482667 2.50496533 -7 2 C-6.34 1.67 -5.68 1.34 -5 1 C-2.875 1.9375 -2.875 1.9375 -1 3 C-0.67 2.01 -0.34 1.02 0 0 Z " fill="#66A577" transform="translate(43,0)"/>
<path d="M0 0 C2.5625 0.25 2.5625 0.25 5 1 C5.495 1.99 5.495 1.99 6 3 C5.21625 2.79375 4.4325 2.5875 3.625 2.375 C2.75875 2.25125 1.8925 2.1275 1 2 C0.34 2.66 -0.32 3.32 -1 4 C-3.625 4.125 -3.625 4.125 -6 4 C-6.33 5.65 -6.66 7.3 -7 9 C-7.66 9 -8.32 9 -9 9 C-9 8.34 -9 7.68 -9 7 C-10.32 7.33 -11.64 7.66 -13 8 C-13 9.65 -13 11.3 -13 13 C-12.01 12.67 -11.02 12.34 -10 12 C-10.17625835 14.37948772 -10.69719773 15.70225849 -12.40234375 17.37890625 C-13.90649092 18.62115486 -15.45129851 19.81376056 -17 21 C-16.690625 21.598125 -16.38125 22.19625 -16.0625 22.8125 C-15 25 -15 25 -14 28 C-14.474375 28.4125 -14.94875 28.825 -15.4375 29.25 C-17.16266518 31.182185 -17.56584875 32.48192275 -18 35 C-18.66 35 -19.32 35 -20 35 C-20 37.31 -20 39.62 -20 42 C-20.66 42 -21.32 42 -22 42 C-21.97254366 48.8229008 -21.11674498 52.87842983 -16.27734375 57.8203125 C-15.64505859 58.40425781 -15.64505859 58.40425781 -15 59 C-15.33 59.66 -15.66 60.32 -16 61 C-16.99 60.34 -17.98 59.68 -19 59 C-16.64722731 61.72426311 -14.37503669 62.8141763 -11 64 C-11.33 64.66 -11.66 65.32 -12 66 C-12.99 66 -13.98 66 -15 66 C-13.35 66.66 -11.7 67.32 -10 68 C-10 68.66 -10 69.32 -10 70 C-8.41676312 70.027193 -6.83338938 70.04648306 -5.25 70.0625 C-4.36828125 70.07410156 -3.4865625 70.08570312 -2.578125 70.09765625 C-0.04097574 70.10713289 -0.04097574 70.10713289 2.140625 69.37109375 C4 69 4 69 7 71 C7 71.33 7 71.66 7 72 C8.32 72 9.64 72 11 72 C12.75 74 12.75 74 14 76 C11.16443413 77.41778293 9.0091294 76.86257622 5.875 76.5625 C4.77929688 76.46066406 3.68359375 76.35882813 2.5546875 76.25390625 C1.71164063 76.17011719 0.86859375 76.08632812 0 76 C0.33 76.99 0.66 77.98 1 79 C-3.09842405 77.59116673 -6.45591603 75.50961643 -10.03515625 73.12109375 C-12.02910935 71.98339089 -13.7583525 71.44433547 -16 71 C-16 71.99 -16 72.98 -16 74 C-22.73837907 69.37939721 -26.22989256 62.53690201 -29 55 C-29.25610388 52.27373287 -29.38521336 49.83365433 -29.3125 47.125 C-29.29904541 46.42028564 -29.28559082 45.71557129 -29.27172852 44.98950195 C-28.96998914 34.47467244 -26.59542164 27.39297143 -20 19 C-19.09894531 18.31550781 -18.19789062 17.63101562 -17.26953125 16.92578125 C-16.52058594 16.29027344 -15.77164062 15.65476562 -15 15 C-15 13.68 -15 12.36 -15 11 C-16.65 11 -18.3 11 -20 11 C-19.38125 10.731875 -18.7625 10.46375 -18.125 10.1875 C-15.7004767 9.04443152 -15.7004767 9.04443152 -14 6 C-11.375 5.8125 -11.375 5.8125 -9 6 C-8.34 4.68 -7.68 3.36 -7 2 C-6.21625 2.04125 -5.4325 2.0825 -4.625 2.125 C-1.83883881 2.28728734 -1.83883881 2.28728734 0 0 Z " fill="#F0F4EE" transform="translate(36,0)"/>
<path d="M0 0 C7.12214621 0.91407224 12.39239425 5.8708731 16.875 11.25 C18.39864655 13.44405103 19.7327711 15.64956223 21 18 C21.33902344 18.60070312 21.67804688 19.20140625 22.02734375 19.8203125 C26.07066943 28.4286833 25.08236712 40.2152537 22 49 C19.72296904 54.41642684 18.24101418 57.5500726 12.625 60.0625 C10.0871742 60.96886636 7.65233224 61.54531447 5 62 C4.67 61.34 4.34 60.68 4 60 C6.0072908 56.9890638 6.83884224 56.36983503 10 55 C8.02 55.495 8.02 55.495 6 56 C6 55.34 6 54.68 6 54 C6.928125 53.566875 7.85625 53.13375 8.8125 52.6875 C12.45175306 50.89786095 12.45175306 50.89786095 15 48 C16.2038452 42.91331958 16.2038452 42.91331958 15 38 C15.60578253 35.98072489 16.26919734 33.97746603 17 32 C16.34 32 15.68 32 15 32 C15 30.02 15 28.04 15 26 C14.34 26 13.68 26 13 26 C12.87625 25.360625 12.7525 24.72125 12.625 24.0625 C12.41875 23.381875 12.2125 22.70125 12 22 C11.34 21.67 10.68 21.34 10 21 C9.1875 18.625 9.1875 18.625 9 16 C10.4375 14.1875 10.4375 14.1875 12 13 C10.68746497 9.06239492 8.83075627 8.25600843 5.4375 5.9375 C3.59050026 4.674011 1.76799083 3.37186768 0 2 C0 1.34 0 0.68 0 0 Z " fill="#F8F9F5" transform="translate(59,10)"/>
<path d="M0 0 C1.98 0 3.96 0 6 0 C6.33 1.32 6.66 2.64 7 4 C6.13375 4.61875 5.2675 5.2375 4.375 5.875 C-2.26125549 11.44190627 -6.17464925 19.45887031 -7 28 C-8.27824803 42.76220593 -4.56047504 52.47318612 5 64 C4.34 64 3.68 64 3 64 C3 64.66 3 65.32 3 66 C3.99 66 4.98 66 6 66 C6 66.66 6 67.32 6 68 C4.02 68 2.04 68 0 68 C0 67.01 0 66.02 0 65 C-0.763125 64.95875 -1.52625 64.9175 -2.3125 64.875 C-5 64 -5 64 -6.6875 61.3125 C-8 58 -8 58 -9 54.75 C-9.79957456 51.70577941 -9.79957456 51.70577941 -13 50 C-13.04384447 48.33391013 -13.0396713 46.66619446 -13 45 C-13.350625 44.319375 -13.70125 43.63875 -14.0625 42.9375 C-15.25784124 40.46712811 -14.70560023 39.58720084 -14 37 C-14.29299023 35.32577014 -14.62690101 33.65821773 -15 32 C-15 29.66666667 -15 27.33333333 -15 25 C-14.34 25 -13.68 25 -13 25 C-13.061875 23.88625 -13.12375 22.7725 -13.1875 21.625 C-13.125625 20.42875 -13.06375 19.2325 -13 18 C-12.01 17.34 -11.02 16.68 -10 16 C-8.78715124 12.94570927 -8.78715124 12.94570927 -8 10 C-7.34 10 -6.68 10 -6 10 C-5.9175 9.21625 -5.835 8.4325 -5.75 7.625 C-5 5 -5 5 -3 3.875 C-2.34 3.58625 -1.68 3.2975 -1 3 C-0.67 2.01 -0.34 1.02 0 0 Z " fill="#6DA97D" transform="translate(15,11)"/>
<path d="M0 0 C5.46773319 -0.21442091 9.49644428 -0.07190818 13.8125 3.5 C15 5 15 5 15 7 C14.01 7.495 14.01 7.495 13 8 C11.47591764 12.80610099 10.15413399 17.3435124 12.5 21.9375 C12.995 22.618125 13.49 23.29875 14 24 C13.28541109 26.14376674 12.58775583 27.41224417 11 29 C8.8778002 29.12569503 6.75088655 29.17576773 4.625 29.1875 C2.88089844 29.20876953 2.88089844 29.20876953 1.1015625 29.23046875 C-2 29 -2 29 -5 27 C-4.835 26.175 -4.67 25.35 -4.5 24.5 C-3.45427462 17.17992235 -4.16108423 11.09296082 -6 4 C-4.68 3.01 -3.36 2.02 -2 1 C-1.34 1.33 -0.68 1.66 0 2 C0 1.34 0 0.68 0 0 Z " fill="#F1938E" transform="translate(41,28)"/>
<path d="M0 0 C7.71853243 1.14348629 12.22675842 4.91292238 18 10 C17.690625 10.598125 17.38125 11.19625 17.0625 11.8125 C15.65979009 14.70043217 15 16.76781367 15 20 C15.99 20.33 16.98 20.66 18 21 C18 22.32 18 23.64 18 25 C18.66 25 19.32 25 20 25 C20 26.98 20 28.96 20 31 C20.66 31 21.32 31 22 31 C21.125 36.75 21.125 36.75 20 39 C19.34 39 18.68 39 18 39 C18.66 36.69 19.32 34.38 20 32 C19.34 32 18.68 32 18 32 C18 30.02 18 28.04 18 26 C17.34 26 16.68 26 16 26 C16 24.68 16 23.36 16 22 C15.505 24.475 15.505 24.475 15 27 C15.66 27.33 16.32 27.66 17 28 C17 29.32 17 30.64 17 32 C17.2981424 33.34164079 17.62243192 34.67851173 18 36 C16.68 34.68 15.36 33.36 14 32 C13.91363281 32.556875 13.82726562 33.11375 13.73828125 33.6875 C12.11445282 42.50682502 8.40187442 48.8640055 1 54 C-4.35229671 56.4434398 -9.65746694 56.94771311 -15.30078125 55.34765625 C-22.50490239 52.52654663 -26.27597908 48.21817238 -29.875 41.5 C-32.04007188 34.76422082 -31.07293995 29.72665312 -28.328125 23.3671875 C-24.97089386 17.3834167 -19.44723332 14.03596842 -13 12 C-5.99652864 11.08151195 -0.77751469 12.94611053 5 17 C7.32187742 19.49233271 9.2270052 22.09545974 11 25 C11.66 24.34 12.32 23.68 13 23 C12.01 22.67 11.02 22.34 10 22 C10 21.01 10 20.02 10 19 C9.38125 18.731875 8.7625 18.46375 8.125 18.1875 C6 17 6 17 4 14 C4.66 13.67 5.32 13.34 6 13 C5.505 11.515 5.505 11.515 5 10 C5.66 10 6.32 10 7 10 C7.495 13.465 7.495 13.465 8 17 C8.66 17 9.32 17 10 17 C9.690625 15.9275 9.38125 14.855 9.0625 13.75 C8.33187904 11.17133778 7.62517096 8.60487898 7 6 C6.67 6.66 6.34 7.32 6 8 C4.68 7.67 3.36 7.34 2 7 C2 6.01 2 5.02 2 4 C1.34 4.66 0.68 5.32 0 6 C0 4 0 2 0 0 Z M-25.375 21.5625 C-29.26640785 27.39961178 -29.77286275 32.02491365 -29 39 C-27.02590945 45.66255561 -23.04021687 49.5568774 -17.171875 53.10546875 C-12.09681621 55.19573577 -5.65858178 55.0377045 -0.578125 53.0546875 C4.96855817 49.73918892 9.30298823 45.36379414 11 39 C11.78222833 32.14957613 11.09748258 26.66082978 7 21 C3.20132 16.90991441 -1.06599483 14.41663751 -6.61328125 13.62890625 C-14.92887891 13.4243257 -19.73326982 15.47537007 -25.375 21.5625 Z " fill="#6C975F" transform="translate(54,11)"/>
<path d="M0 0 C0.33 0 0.66 0 1 0 C1.33 2.31 1.66 4.62 2 7 C1.34 7 0.68 7 0 7 C0.99 8.65 1.98 10.3 3 12 C3.99 11.01 4.98 10.02 6 9 C5.67 10.65 5.34 12.3 5 14 C5.66 14 6.32 14 7 14 C7.25523438 14.90492187 7.25523438 14.90492187 7.515625 15.828125 C8.96189671 20.59774447 10.13127043 23.66488831 14 27 C14 27.66 14 28.32 14 29 C14.66 29 15.32 29 16 29 C16 29.66 16 30.32 16 31 C24.84032918 31.77546747 33.16776465 32.19354532 42 31 C42 30.34 42 29.68 42 29 C42.66 29 43.32 29 44 29 C44.66 27.35 45.32 25.7 46 24 C46.66 24 47.32 24 48 24 C48.66 22.35 49.32 20.7 50 19 C50.33 19 50.66 19 51 19 C51 20.98 51 22.96 51 25 C51.66 24.34 52.32 23.68 53 23 C53.66 23 54.32 23 55 23 C55.99 22.34 56.98 21.68 58 21 C56.54744301 24.82946843 54.57104439 26.12050295 51 28 C52.32 28 53.64 28 55 28 C52.7629196 31.3556206 52.57482962 31.19278041 49 32 C48.505 32.99 48.505 32.99 48 34 C42.88271289 35.70576237 38.19099226 35.0687337 33 34 C32.67 34.33 32.34 34.66 32 35 C32.99 35.495 32.99 35.495 34 36 C34 36.66 34 37.32 34 38 C33.0925 37.62875 32.185 37.2575 31.25 36.875 C28.11902985 35.69640701 28.11902985 35.69640701 25.625 36.875 C25.08875 37.24625 24.5525 37.6175 24 38 C24.66 37.01 25.32 36.02 26 35 C22.95086772 33.98888907 22.95086772 33.98888907 20 35 C16.32670036 35.13357453 13.50147041 35.1671568 10 34 C9.67 33.34 9.34 32.68 9 32 C8.175 31.67 7.35 31.34 6.5 31 C4 30 4 30 3 28 C4.65 28.33 6.3 28.66 8 29 C6.88126945 27.78548682 6.88126945 27.78548682 4.5625 26.6875 C1.90845797 24.93971622 1.10429178 23.9113147 0 21 C1.32 21.66 2.64 22.32 4 23 C3.566875 22.61070313 3.13375 22.22140625 2.6875 21.8203125 C-0.0125174 19.10779502 -1.82516233 17.18101129 -2.3984375 13.30859375 C-2.37743232 10.84748702 -2.26578002 8.44616058 -2 6 C-1.34 6 -0.68 6 0 6 C0 4.02 0 2.04 0 0 Z " fill="#DEBE7F" transform="translate(16,36)"/>
<path d="M0 0 C0.66 0.99 1.32 1.98 2 3 C0.02 3 -1.96 3 -4 3 C-4 3.66 -4 4.32 -4 5 C-5.32 5.33 -6.64 5.66 -8 6 C-9.06212477 8.76152441 -9.03594164 9.8945712 -8.0625 12.75 C-6.16765748 18.54598889 -6.8142069 24.07103448 -8 30 C-5.69 30.99 -3.38 31.98 -1 33 C-1 33.33 -1 33.66 -1 34 C-3.97 34 -6.94 34 -10 34 C-10 34.99 -10 35.98 -10 37 C-14.56758976 35.20558974 -17.04081832 32.05588045 -19.08984375 27.6640625 C-20.86025358 22.48200455 -21.11740406 16.77965802 -19.0546875 11.6484375 C-14.77149579 4.45590802 -8.7241495 -0.94827712 0 0 Z " fill="#FAFAF9" transform="translate(45,25)"/>
<path d="M0 0 C15.12140505 -0.63993407 27.00896887 2.88274973 38.75 12.75 C48.22611251 21.70060359 54.6140533 33.42506049 55.09765625 46.67578125 C55.08605469 47.54589844 55.07445312 48.41601562 55.0625 49.3125 C55.05347656 50.19550781 55.04445313 51.07851563 55.03515625 51.98828125 C55.02355469 52.65214844 55.01195312 53.31601562 55 54 C53.02 54.495 53.02 54.495 51 55 C50.86078125 53.99710938 50.7215625 52.99421875 50.578125 51.9609375 C48.24814818 35.75700783 44.60781772 22.74853909 30.875 12.3984375 C21.53302411 6.80012107 10.77861894 4.43200878 0 4 C0 2.68 0 1.36 0 0 Z " fill="#2C3691" transform="translate(279,1)"/>
<path d="M0 0 C13.17528607 -0.82776666 22.84886775 2.54939931 33 11 C42.07152693 19.18736251 45.39404801 29.40513126 46.0546875 41.3828125 C46 44 46 44 45 46 C43.68 45.67 42.36 45.34 41 45 C40.91363281 43.96101563 40.82726562 42.92203125 40.73828125 41.8515625 C39.67185371 30.67888955 37.60186258 21.45915519 29.01953125 13.53125 C20.35155022 6.95900906 10.62722743 4.81254455 0 4 C0 2.68 0 1.36 0 0 Z " fill="#D75D2B" transform="translate(279,10)"/>
<path d="M0 0 C1.32 0.33 2.64 0.66 4 1 C4.020625 2.19625 4.04125 3.3925 4.0625 4.625 C4.4959277 8.45135387 5.57504479 9.92133122 8.5625 12.3125 C9.20316406 12.76238281 9.84382813 13.21226563 10.50390625 13.67578125 C10.99761719 14.11277344 11.49132812 14.54976562 12 15 C12 15.99 12 16.98 12 18 C9.53199953 16.84826645 7.95216435 15.95216435 6 14 C6.43639406 16.9456599 7.14845127 18.18443946 9.0625 20.5625 C11 23 11 23 11 26 C5.25 26.125 5.25 26.125 3 25 C3 26.98 3 28.96 3 31 C2.01 31 1.02 31 0 31 C-0.33 29.35 -0.66 27.7 -1 26 C-2.98 26 -4.96 26 -7 26 C-6.49701212 21.59885603 -4.91227269 19.28804981 -2 16 C-3.98 16.99 -3.98 16.99 -6 18 C-5.61299115 14.61367259 -5.09134524 13.11015161 -2.875 10.4375 C-2.25625 9.633125 -1.6375 8.82875 -1 8 C-1.32843384 5.93618425 -1.32843384 5.93618425 -2 4 C-1.0625 1.75 -1.0625 1.75 0 0 Z " fill="#E47F32" transform="translate(180,56)"/>
<path d="M0 0 C2.475 0.495 2.475 0.495 5 1 C5 2.65 5 4.3 5 6 C4.34 6 3.68 6 3 6 C3 5.34 3 4.68 3 4 C2.34 4 1.68 4 1 4 C1 4.66 1 5.32 1 6 C-2.95176398 7.78466761 -6.88155334 8.68819198 -11.109375 9.53515625 C-12.9994375 9.8268275 -12.9994375 9.8268275 -14 11 C-8.9498355 10.48212815 -8.9498355 10.48212815 -4 9.4375 C-0.686949 8.71277009 2.6171693 8.94361949 6 9 C6 10.98 6 12.96 6 15 C3.1875 15.625 3.1875 15.625 0 16 C-0.99 15.34 -1.98 14.68 -3 14 C-3 13.01 -3 12.02 -3 11 C-3.66 11 -4.32 11 -5 11 C-4.67 12.65 -4.34 14.3 -4 16 C-5.32 16.33 -6.64 16.66 -8 17 C-8.99 15.68 -9.98 14.36 -11 13 C-10.67 14.65 -10.34 16.3 -10 18 C-10.99 17.01 -11.98 16.02 -13 15 C-12.67 16.32 -12.34 17.64 -12 19 C-12.99 19 -13.98 19 -15 19 C-14.67 19.66 -14.34 20.32 -14 21 C-15.9375 20.1875 -15.9375 20.1875 -18 19 C-19 16 -19 16 -18 13 C-18.66 13 -19.32 13 -20 13 C-20.33 11.35 -20.66 9.7 -21 8 C-19.34385343 7.61781233 -17.67542976 7.28604898 -16 7 C-15.67 7.33 -15.34 7.66 -15 8 C-14.814375 7.0409375 -14.814375 7.0409375 -14.625 6.0625 C-14.41875 5.381875 -14.2125 4.70125 -14 4 C-11.69027779 2.8451389 -9.52482667 2.50496533 -7 2 C-6.34 1.67 -5.68 1.34 -5 1 C-2.875 1.9375 -2.875 1.9375 -1 3 C-0.67 2.01 -0.34 1.02 0 0 Z " fill="#49945C" transform="translate(43,0)"/>
<path d="M0 0 C10.11708866 -0.77492594 18.26929749 1.84252685 26.18359375 8.25390625 C32.6786076 14.49750021 35.92953948 22.08751407 37 31 C36.56640625 34.36328125 36.56640625 34.36328125 36 37 C34.68 36.67 33.36 36.34 32 36 C31.90203125 35.154375 31.8040625 34.30875 31.703125 33.4375 C30.41603765 23.67338907 28.8277875 16.485007 20.84765625 10.25 C15.81808375 6.84732939 11.05159506 5.65393782 5.11328125 5.2109375 C2.99459102 4.9994601 1.05009845 4.56458693 -1 4 C-0.67 2.68 -0.34 1.36 0 0 Z " fill="#2C3691" transform="translate(279,19)"/>
<path d="M0 0 C1.65 0 3.3 0 5 0 C6.0495014 2.58338806 6.26841822 4.32073758 5.234375 6.9375 C2.26810211 12.15814029 -1.23723019 16.01473959 -7 18 C-13.60630562 18.83078088 -19.52951948 19.23169417 -25 15 C-25.8125 11.8125 -25.8125 11.8125 -26 9 C-23 7 -23 7 -21 7 C-17.95222727 8.52388637 -17.29381245 10.95954074 -16 14 C-10.67829506 14.29562367 -10.67829506 14.29562367 -6 12 C-6.639375 11.401875 -7.27875 10.80375 -7.9375 10.1875 C-10 8 -10 8 -11 5 C-9.1875 4.3125 -9.1875 4.3125 -7 4 C-5.25 5.4375 -5.25 5.4375 -4 7 C-1.77810176 4.77810176 -1.07401108 2.91517292 0 0 Z " fill="#E27931" transform="translate(125,26)"/>
<path d="M0 0 C0.99 0 1.98 0 3 0 C4.09434025 2.55346058 4.97128598 4.80378752 5.375 7.5625 C5.82163959 10.18599413 5.82163959 10.18599413 8.125 12.0625 C8.74375 12.701875 9.3625 13.34125 10 14 C9.75 16.25 9.75 16.25 9 18 C8.01 17.01 7.02 16.02 6 15 C5.13345127 18.21979366 5.13345127 18.21979366 5 22 C6.92293518 25.21829104 6.92293518 25.21829104 9 28 C8.67 28.99 8.34 29.98 8 31 C4.00003714 29.66667905 3.16217663 27.5042173 1 24 C0.401875 24.99 -0.19625 25.98 -0.8125 27 C-1.534375 27.99 -2.25625 28.98 -3 30 C-3.99 30 -4.98 30 -6 30 C-5.54067228 27.42776477 -5.0796419 26.09495764 -3.375 24.0625 C-1.6974791 22.02668343 -1.6974791 22.02668343 -2.3125 19.25 C-2.6528125 18.13625 -2.6528125 18.13625 -3 17 C-4.32 17.33 -5.64 17.66 -7 18 C-6.04071346 15.3435142 -5.23728879 13.27379476 -3.375 11.125 C-1.42428823 8.11026363 -1.93479821 5.52089641 -2 2 C-1.34 1.34 -0.68 0.68 0 0 Z " fill="#2E3191" transform="translate(103,56)"/>
<path d="M0 0 C3.875 0.875 3.875 0.875 5 2 C4.71269945 4.33944736 4.38063221 6.6739143 4 9 C4.598125 9.2475 5.19625 9.495 5.8125 9.75 C8.28647521 11.16370012 9.43370255 12.65055383 11 15 C10.01 16.485 10.01 16.485 9 18 C8.34 17.01 7.68 16.02 7 15 C5.53219091 18.17352608 5.53219091 18.17352608 5 22 C6.36925842 24.36756237 8.09068295 25.99976309 10 28 C10 28.99 10 29.98 10 31 C7.20171644 30.61402985 6.1794116 30.19863427 4.25 28.0625 C3 26 3 26 3 24 C2.34 24 1.68 24 1 24 C0.71125 24.598125 0.4225 25.19625 0.125 25.8125 C-1 28 -1 28 -3 31 C-3.99 30.67 -4.98 30.34 -6 30 C-4.89605517 27.70719151 -3.76603483 25.66205032 -2.3125 23.5625 C-0.74831573 20.50861642 -0.99150451 19.20884927 -2 16 C-2.33 16.66 -2.66 17.32 -3 18 C-3.99 18 -4.98 18 -6 18 C-4.9936344 15.29055416 -3.98384605 12.97576908 -2.375 10.5625 C-0.7263325 7.4899833 -0.84721863 5.4375809 -1 2 C-0.67 1.34 -0.34 0.68 0 0 Z " fill="#2D3092" transform="translate(164,56)"/>
<path d="M0 0 C1.32 0.33 2.64 0.66 4 1 C4.061875 2.216875 4.12375 3.43375 4.1875 4.6875 C4.70719074 9.22080228 6.71527048 10.88815098 10 14 C9.8125 16.3125 9.8125 16.3125 9 18 C8.01 17.01 7.02 16.02 6 15 C5.18580118 18.98574205 5.18580118 18.98574205 5 23 C6.8312811 25.81099414 6.8312811 25.81099414 9 28 C9 28.99 9 29.98 9 31 C8.01 31 7.02 31 6 31 C4.04456468 28.84075874 2.61151878 26.43905546 1 24 C-1.475 27.465 -1.475 27.465 -4 31 C-4.66 30.67 -5.32 30.34 -6 30 C-5.54836151 27.47082446 -5.07180488 26.08903805 -3.4375 24.0625 C-1.66286463 21.51628404 -1.67117199 20.04165911 -2 17 C-2.33 16.67 -2.66 16.34 -3 16 C-3.33 16.66 -3.66 17.32 -4 18 C-4.66 18 -5.32 18 -6 18 C-5.60028969 15.12208578 -5.28450918 13.35279138 -3.4375 11.0625 C-1.51297017 8.30121808 -1.9297326 6.30256762 -2 3 C-1.34 2.01 -0.68 1.02 0 0 Z " fill="#2E3191" transform="translate(134,56)"/>
<path d="M0 0 C1.98 0 3.96 0 6 0 C6 0.66 6 1.32 6 2 C6.763125 1.67 7.52625 1.34 8.3125 1 C11 0 11 0 14 0 C14.12375 1.051875 14.2475 2.10375 14.375 3.1875 C14.91140782 6.45958771 15.63880035 9.00536076 17 12 C15.90625 13.48046875 15.90625 13.48046875 14 15 C10.96875 15.36328125 10.96875 15.36328125 7.5 15.3125 C6.3553125 15.30863281 5.210625 15.30476563 4.03125 15.30078125 C1 15 1 15 -2 13 C-1.855625 12.154375 -1.71125 11.30875 -1.5625 10.4375 C-0.9941203 6.96406851 -0.48797607 3.48554338 0 0 Z " fill="#F08680" transform="translate(38,42)"/>
<path d="M0 0 C0 0.66 0 1.32 0 2 C1.98 1.67 3.96 1.34 6 1 C6.99 2.485 6.99 2.485 8 4 C9.98723268 4.70381157 11.98777953 5.3711811 14 6 C14.66 6.66 15.32 7.32 16 8 C16.99 8.33 17.98 8.66 19 9 C19 10.98 19 12.96 19 15 C20.65 15.33 22.3 15.66 24 16 C24 17.32 24 18.64 24 20 C23.34 20 22.68 20 22 20 C21.67 20.66 21.34 21.32 21 22 C20.360625 21.13375 19.72125 20.2675 19.0625 19.375 C12.048258 11.01718489 2.5481983 7.31786706 -8.0625 6.3125 C-9.70760559 6.19741031 -11.35329099 6.08926086 -13 6 C-12.34 5.67 -11.68 5.34 -11 5 C-11 4.34 -11 3.68 -11 3 C-10.34 3 -9.68 3 -9 3 C-9 3.66 -9 4.32 -9 5 C-8.34 5 -7.68 5 -7 5 C-6.814375 3.7934375 -6.814375 3.7934375 -6.625 2.5625 C-6.41875 1.716875 -6.2125 0.87125 -6 0 C-3.50907189 -1.24546405 -2.58919267 -0.7767578 0 0 Z " fill="#86B793" transform="translate(55,1)"/>
<path d="M0 0 C0 0.99 0 1.98 0 3 C-2.475 2.505 -2.475 2.505 -5 2 C-4.67 2.99 -4.34 3.98 -4 5 C-4.66 5 -5.32 5 -6 5 C-5.67 5.66 -5.34 6.32 -5 7 C-4.01 6.34 -3.02 5.68 -2 5 C-1.67 6.65 -1.34 8.3 -1 10 C-0.34 10 0.32 10 1 10 C1.33 9.01 1.66 8.02 2 7 C2.99 7.33 3.98 7.66 5 8 C4.34 8 3.68 8 3 8 C3.66 11.63 4.32 15.26 5 19 C4.34 19 3.68 19 3 19 C2.505 15.535 2.505 15.535 2 12 C2 13.32 2 14.64 2 16 C-2.12797305 15.39294514 -5.37438822 14.06000669 -9 12 C-9.33 11.34 -9.66 10.68 -10 10 C-10.99 9.67 -11.98 9.34 -13 9 C-13 8.01 -13 7.02 -13 6 C-12.01 6 -11.02 6 -10 6 C-10 4.02 -10 2.04 -10 0 C-11.09699219 0.22816406 -12.19398437 0.45632813 -13.32421875 0.69140625 C-14.77854576 0.98227165 -16.23297856 1.27260843 -17.6875 1.5625 C-18.7693457 1.78969727 -18.7693457 1.78969727 -19.87304688 2.02148438 C-23.88884763 2.80997493 -26.98291885 3.19640878 -31 2 C-24.18450377 -4.81549623 -8.19485998 -3.13369456 0 0 Z " fill="#EAEBEA" transform="translate(59,9)"/>
<path d="M0 0 C0.33 0.66 0.66 1.32 1 2 C1.99 2 2.98 2 4 2 C4 1.34 4 0.68 4 0 C5.4540625 0.5259375 5.4540625 0.5259375 6.9375 1.0625 C10.86115212 2.22358073 14.09827438 1.80684934 18.08203125 1.09375 C18.71496094 1.0628125 19.34789063 1.031875 20 1 C20.66 1.66 21.32 2.32 22 3 C21.01 3.495 21.01 3.495 20 4 C20.66 4.33 21.32 4.66 22 5 C22 5.66 22 6.32 22 7 C22.66 7 23.32 7 24 7 C24 6.34 24 5.68 24 5 C27.465 4.505 27.465 4.505 31 4 C31 4.99 31 5.98 31 7 C30.34 7 29.68 7 29 7 C29 6.34 29 5.68 29 5 C28.34 5 27.68 5 27 5 C27.33 5.99 27.66 6.98 28 8 C28.99 8.33 29.98 8.66 31 9 C31.99 7.68 32.98 6.36 34 5 C34.928125 5.5259375 34.928125 5.5259375 35.875 6.0625 C36.57625 6.371875 37.2775 6.68125 38 7 C38.66 6.67 39.32 6.34 40 6 C39.67 6.99 39.34 7.98 39 9 C38.21625 8.95875 37.4325 8.9175 36.625 8.875 C33.83883881 8.71271266 33.83883881 8.71271266 32 11 C29.99650739 10.68834559 27.99673484 10.35236497 26 10 C24.32774271 10.30404678 22.65919896 10.63128912 21 11 C20.34 10.67 19.68 10.34 19 10 C17.7934375 10.2784375 17.7934375 10.2784375 16.5625 10.5625 C14 11 14 11 11 9 C9.34450469 8.61500109 7.6777567 8.27206865 6 8 C5.67 7.01 5.34 6.02 5 5 C4.0409375 5.2784375 4.0409375 5.2784375 3.0625 5.5625 C2.381875 5.706875 1.70125 5.85125 1 6 C0 5 0 5 -0.0625 2.4375 C-0.041875 1.633125 -0.02125 0.82875 0 0 Z " fill="#97C6A6" transform="translate(22,79)"/>
<path d="M0 0 C0.99 0.33 1.98 0.66 3 1 C-1.62764493 7.21839787 -7.46215095 11.75901785 -15 14 C-17.8125 14.125 -17.8125 14.125 -20 14 C-19.67 12.35 -19.34 10.7 -19 9 C-20.32 8.34 -21.64 7.68 -23 7 C-22.67 6.01 -22.34 5.02 -22 4 C-22.99 3.67 -23.98 3.34 -25 3 C-24.34 2.34 -23.68 1.68 -23 1 C-21.32774271 1.30404678 -19.66246041 1.64628502 -18 2 C-15.71196852 2.04152507 -13.43243703 1.99876751 -11.14453125 1.95703125 C-9 2 -9 2 -6.1875 2.6875 C-3.87172028 3.27369172 -3.87172028 3.27369172 -1.875 1.5 C-1.25625 1.005 -0.6375 0.51 0 0 Z " fill="#F7F6F3" transform="translate(72,68)"/>
<path d="M0 0 C7.84783717 -0.75138866 13.40902903 0.62621228 20 5 C24.33543084 9.10725027 27.61468771 15.36361524 28.25 21.359375 C28.25 23.24142915 28.13651611 25.12290353 28 27 C26.68 27.33 25.36 27.66 24 28 C23.46887374 25.94538 22.98013242 23.89903659 22.5703125 21.81640625 C21.40780608 15.93249215 20.14944682 11.92899073 15.5625 7.8125 C10.56333797 5.26906669 5.52638213 4.67961981 0 4 C0 2.68 0 1.36 0 0 Z " fill="#D65C2B" transform="translate(279,28)"/>
<path d="M0 0 C1.8125 0.875 1.8125 0.875 2.8125 2.875 C4.82919827 4.00850534 4.82919827 4.00850534 6.8125 4.875 C6.4825 5.535 6.1525 6.195 5.8125 6.875 C6.4725 7.535 7.1325 8.195 7.8125 8.875 C6.52284824 10.25062854 5.18560707 11.58266393 3.8125 12.875 C3.1525 12.875 2.4925 12.875 1.8125 12.875 C1.709375 13.41125 1.60625 13.9475 1.5 14.5 C0.61821661 17.5461608 -0.60166174 20.13027994 -2.1875 22.875 C-3.1775 23.205 -4.1675 23.535 -5.1875 23.875 C-5.1875 23.215 -5.1875 22.555 -5.1875 21.875 C-4.5275 21.545 -3.8675 21.215 -3.1875 20.875 C-3.5175 19.225 -3.8475 17.575 -4.1875 15.875 C-4.1875 17.195 -4.1875 18.515 -4.1875 19.875 C-4.8475 19.875 -5.5075 19.875 -6.1875 19.875 C-6.1875 17.895 -6.1875 15.915 -6.1875 13.875 C-5.1975 13.545 -4.2075 13.215 -3.1875 12.875 C-3.74478913 9.53126525 -4.53923889 6.84187001 -6.1875 3.875 C-2.76553468 -0.15803055 -2.76553468 -0.15803055 0 0 Z " fill="#E1DED8" transform="translate(24.1875,17.125)"/>
<path d="M0 0 C1.98 0 3.96 0 6 0 C6.33 1.32 6.66 2.64 7 4 C6.13375 4.61875 5.2675 5.2375 4.375 5.875 C-1.21574125 10.51187071 -4.46809404 17.31194652 -7 24 C-8.32 23.34 -9.64 22.68 -11 22 C-11.43200679 17.24792529 -9.98489083 14.21789302 -8 10 C-7.34 10 -6.68 10 -6 10 C-5.9175 9.21625 -5.835 8.4325 -5.75 7.625 C-5 5 -5 5 -3 3.875 C-2.34 3.58625 -1.68 3.2975 -1 3 C-0.67 2.01 -0.34 1.02 0 0 Z " fill="#8EBF9E" transform="translate(15,11)"/>
<path d="M0 0 C0.66 0 1.32 0 2 0 C2 1.32 2 2.64 2 4 C2.66 4 3.32 4 4 4 C4 5.98 4 7.96 4 10 C4.66 10 5.32 10 6 10 C5.125 14.75 5.125 14.75 4 17 C5.32 16.67 6.64 16.34 8 16 C7.93993922 17.45947705 7.8511311 18.91779272 7.75 20.375 C7.68039063 21.59316406 7.68039063 21.59316406 7.609375 22.8359375 C7 25 7 25 5.125 26.21875 C4.42375 26.4765625 3.7225 26.734375 3 27 C1.63875 27.556875 1.63875 27.556875 0.25 28.125 C-0.4925 28.41375 -1.235 28.7025 -2 29 C-1.95875 28.05125 -1.9175 27.1025 -1.875 26.125 C-1.65026182 22.89755144 -1.65026182 22.89755144 -4 21 C-3.690625 20.319375 -3.38125 19.63875 -3.0625 18.9375 C-1.86629351 15.63034088 -1.40994603 12.48454122 -1 9 C0.32 9.99 1.64 10.98 3 12 C2.34 10.68 1.68 9.36 1 8 C1.66 8 2.32 8 3 8 C3 7.34 3 6.68 3 6 C2.01 5.67 1.02 5.34 0 5 C0 3.35 0 1.7 0 0 Z " fill="#E6D0A3" transform="translate(68,33)"/>
<path d="M0 0 C0.33 0 0.66 0 1 0 C1.08636719 0.6290625 1.17273438 1.258125 1.26171875 1.90625 C2.51145914 9.5193474 4.87936654 14.95938279 10.4375 20.375 C15.63621964 23.67174904 20.87932565 24.88075278 27 24 C33.80926219 22.06936029 37.91820185 18.69851036 42 13 C42.495 14.485 42.495 14.485 43 16 C42.67 16.66 42.34 17.32 42 18 C41.34 18 40.68 18 40 18 C39.34 19.65 38.68 21.3 38 23 C37.34 23 36.68 23 36 23 C36 23.66 36 24.32 36 25 C26.89435971 27.09464349 19.09927108 27.12316325 10 25 C10 24.34 10 23.68 10 23 C9.34 23 8.68 23 8 23 C7.731875 22.195625 7.46375 21.39125 7.1875 20.5625 C6.795625 19.716875 6.40375 18.87125 6 18 C5.01 17.67 4.02 17.34 3 17 C1.29466783 13.67908998 1 11.81507216 1 8 C0.34 8 -0.32 8 -1 8 C-1.625 5.125 -1.625 5.125 -2 2 C-1.34 1.34 -0.68 0.68 0 0 Z " fill="#F2F3EA" transform="translate(22,42)"/>
<path d="M0 0 C4.07378616 2.56292566 7.21847393 5.46909957 9 10 C9.24636612 12.70017269 9.09065666 15.28030006 9 18 C7.68 18.33 6.36 18.66 5 19 C4.90203125 18.32453125 4.8040625 17.6490625 4.703125 16.953125 C4.05353203 13.07796692 3.49739936 9.81573495 1.4375 6.4375 C-2.19211807 4.29695601 -5.84647055 4.17750126 -10 4 C-10 2.68 -10 1.36 -10 0 C-6.68508837 -1.65745581 -3.43206255 -1.01415902 0 0 Z " fill="#2E3191" transform="translate(289,37)"/>
<path d="M0 0 C-0.33 0.99 -0.66 1.98 -1 3 C0.32 2.34 1.64 1.68 3 1 C4.32 2.65 5.64 4.3 7 6 C4.16443413 7.41778293 2.0091294 6.86257622 -1.125 6.5625 C-2.22070312 6.46066406 -3.31640625 6.35882813 -4.4453125 6.25390625 C-5.28835937 6.17011719 -6.13140625 6.08632812 -7 6 C-6.67 6.99 -6.34 7.98 -6 9 C-10.10958767 7.54955729 -13.43258745 5.48889248 -17 3 C-16.67 2.01 -16.34 1.02 -16 0 C-15.06027344 0.01740234 -15.06027344 0.01740234 -14.1015625 0.03515625 C-12.87566406 0.04869141 -12.87566406 0.04869141 -11.625 0.0625 C-10.40683594 0.07990234 -10.40683594 0.07990234 -9.1640625 0.09765625 C-1.12028302 -0.26533019 -1.12028302 -0.26533019 0 0 Z " fill="#FAF7F3" transform="translate(43,70)"/>
<path d="M0 0 C9.38052729 -0.5893525 17.15813133 0.4968524 25.3125 5.38671875 C25.869375 5.91910156 26.42625 6.45148437 27 7 C27 8.32 27 9.64 27 11 C26.29230469 10.71253906 25.58460938 10.42507812 24.85546875 10.12890625 C16.62376965 6.87451358 8.89009502 4.39336704 0 4 C0 2.68 0 1.36 0 0 Z " fill="#E47D32" transform="translate(279,10)"/>
<path d="M0 0 C2.4375 0 2.4375 0 5 1 C6.8125 4.0625 6.8125 4.0625 8 7 C13.08303686 7.11320856 13.08303686 7.11320856 18 6 C18.99 6.33 19.98 6.66 21 7 C21 7.66 21 8.32 21 9 C17.50231017 11.14650403 14.62648263 11.29840526 10.5625 11.3125 C8.89380859 11.33763672 8.89380859 11.33763672 7.19140625 11.36328125 C3.66008116 10.96130667 1.79208585 10.17275045 -1 8 C-1.9375 4.9375 -1.9375 4.9375 -2 2 C-1.34 1.34 -0.68 0.68 0 0 Z " fill="#D14E29" transform="translate(101,33)"/>
<path d="M0 0 C0 0.66 0 1.32 0 2 C1.65 1.67 3.3 1.34 5 1 C4.67 2.32 4.34 3.64 4 5 C4.66 5 5.32 5 6 5 C6.33 4.01 6.66 3.02 7 2 C8.32 2.33 9.64 2.66 11 3 C9.94239818 5.88377142 8.82281079 8.51530402 7 11 C3.25 12 3.25 12 0 12 C0 11.34 0 10.68 0 10 C-1.65 10.33 -3.3 10.66 -5 11 C-4.34 8.03 -3.68 5.06 -3 2 C-3.66 1.67 -4.32 1.34 -5 1 C-2 0 -2 0 0 0 Z " fill="#F18C88" transform="translate(44,32)"/>
<path d="M0 0 C6.6 0 13.2 0 20 0 C20 1.32 20 2.64 20 4 C16.6042877 6.05701803 13.9382341 6.26969117 10 6.25 C8.453125 6.25773437 8.453125 6.25773437 6.875 6.265625 C4.05402722 6.00499165 2.39854282 5.45296344 0 4 C0 2.68 0 1.36 0 0 Z " fill="#EAEDEB" transform="translate(35,59)"/>
<path d="M0 0 C2.97 0.495 2.97 0.495 6 1 C5.9278125 1.67546875 5.855625 2.3509375 5.78125 3.046875 C5.6884375 3.93890625 5.595625 4.8309375 5.5 5.75 C5.4071875 6.63171875 5.314375 7.5134375 5.21875 8.421875 C4.94363687 11.23304835 4.94363687 11.23304835 5 15 C2.69 15.33 0.38 15.66 -2 16 C-3.01924246 9.78630501 -3.62926746 5.51648654 0 0 Z " fill="#E37C31" transform="translate(135,28)"/>
<path d="M0 0 C0.33 0 0.66 0 1 0 C1.33 2.31 1.66 4.62 2 7 C1.34 7 0.68 7 0 7 C0.99 8.65 1.98 10.3 3 12 C3.99 11.01 4.98 10.02 6 9 C5.67 10.65 5.34 12.3 5 14 C5.66 14 6.32 14 7 14 C7.19477739 15.62414378 7.38059458 17.24936423 7.5625 18.875 C7.66691406 19.77992187 7.77132813 20.68484375 7.87890625 21.6171875 C8 24 8 24 7 26 C6.67 25.01 6.34 24.02 6 23 C5.1028125 22.566875 5.1028125 22.566875 4.1875 22.125 C1.04469912 20.5087024 -0.20751765 19.07282689 -2 16 C-2.3294285 12.63879981 -2.23524914 9.36536965 -2 6 C-1.34 6 -0.68 6 0 6 C0 4.02 0 2.04 0 0 Z " fill="#D8B269" transform="translate(16,36)"/>
<path d="M0 0 C3.45826342 -0.05789006 6.91640293 -0.09355821 10.375 -0.125 C11.35984375 -0.14175781 12.3446875 -0.15851562 13.359375 -0.17578125 C14.77089844 -0.18544922 14.77089844 -0.18544922 16.2109375 -0.1953125 C17.51490479 -0.21102295 17.51490479 -0.21102295 18.84521484 -0.22705078 C21 0 21 0 23 2 C23 3.32 23 4.64 23 6 C22.07767578 5.85691406 22.07767578 5.85691406 21.13671875 5.7109375 C19.92435547 5.54464844 19.92435547 5.54464844 18.6875 5.375 C17.88699219 5.25898438 17.08648437 5.14296875 16.26171875 5.0234375 C13.71276785 4.78466593 13.71276785 4.78466593 11 7 C11 6.34 11 5.68 11 5 C7.37 4.67 3.74 4.34 0 4 C0 2.68 0 1.36 0 0 Z " fill="#F7A73D" transform="translate(130,24)"/>
<path d="M0 0 C1.875 1.125 1.875 1.125 3 3 C2.77669287 6.64734979 2.61627165 8.38372835 0 11 C-2.84602594 11.36487512 -4.3864306 11.40199375 -6.8125 9.8125 C-8.42525784 7.35092224 -8.4334014 5.88934264 -8 3 C-5.85607122 -0.27231235 -3.76836426 -0.56525464 0 0 Z " fill="#DA662C" transform="translate(287,44)"/>
<path d="M0 0 C0 1.98 0 3.96 0 6 C-2.8125 6.625 -2.8125 6.625 -6 7 C-6.99 6.34 -7.98 5.68 -9 5 C-9 4.01 -9 3.02 -9 2 C-9.66 2 -10.32 2 -11 2 C-10.67 3.65 -10.34 5.3 -10 7 C-11.32 7.33 -12.64 7.66 -14 8 C-14.99 6.68 -15.98 5.36 -17 4 C-16.67 5.65 -16.34 7.3 -16 9 C-18.02054804 7.35830472 -20.02043058 5.69088222 -22 4 C-22 3.67 -22 3.34 -22 3 C-7.40318907 -0.44419134 -7.40318907 -0.44419134 0 0 Z " fill="#666162" transform="translate(49,9)"/>
<path d="M0 0 C11.00361343 -0.58714933 11.00361343 -0.58714933 16 3 C16.875 5.1875 16.875 5.1875 17 7 C17.66 7 18.32 7 19 7 C19.66 8.65 20.32 10.3 21 12 C20.48953125 11.59007812 19.9790625 11.18015625 19.453125 10.7578125 C13.21360274 6.13348572 7.67036953 4.75276046 0 4 C0 2.68 0 1.36 0 0 Z " fill="#D8612B" transform="translate(279,28)"/>
<path d="M0 0 C0 0.66 0 1.32 0 2 C1.98 1.67 3.96 1.34 6 1 C6 1.99 6 2.98 6 4 C4.68 3.67 3.36 3.34 2 3 C2 3.66 2 4.32 2 5 C2.99 5.33 3.98 5.66 5 6 C1.14763991 8.56824006 -1.36441166 7.82735049 -5.6875 7.125 C-6.7403418 6.96837891 -6.7403418 6.96837891 -7.81445312 6.80859375 C-9.54458829 6.54966196 -11.27254118 6.27622343 -13 6 C-12.34 5.67 -11.68 5.34 -11 5 C-11 4.34 -11 3.68 -11 3 C-10.34 3 -9.68 3 -9 3 C-9 3.66 -9 4.32 -9 5 C-8.34 5 -7.68 5 -7 5 C-6.814375 3.7934375 -6.814375 3.7934375 -6.625 2.5625 C-6.41875 1.716875 -6.2125 0.87125 -6 0 C-3.50907189 -1.24546405 -2.58919267 -0.7767578 0 0 Z " fill="#94C0A0" transform="translate(55,1)"/>
<path d="M0 0 C2 1 2 1 3 3 C5.34613181 4.53712084 6.44563145 5.09239476 9.25 4.625 C9.8275 4.41875 10.405 4.2125 11 4 C8.43626952 8.22261491 5.37673848 9.92680809 1 12 C-1.4375 11.75 -1.4375 11.75 -3 11 C-3 10.01 -3 9.02 -3 8 C-3.66 7.01 -4.32 6.02 -5 5 C-4.01 5 -3.02 5 -2 5 C-2.33 3.68 -2.66 2.36 -3 1 C-2.01 1.66 -1.02 2.32 0 3 C0 2.01 0 1.02 0 0 Z " fill="#E1CB9F" transform="translate(32,13)"/>
<path d="M0 0 C0.99 0.33 1.98 0.66 3 1 C3 1.66 3 2.32 3 3 C2.01 3 1.02 3 0 3 C0 3.66 0 4.32 0 5 C0.66 5.33 1.32 5.66 2 6 C1.01 6.99 0.02 7.98 -1 9 C-0.34 11.31 0.32 13.62 1 16 C0.01 16 -0.98 16 -2 16 C-1.67 16.66 -1.34 17.32 -1 18 C-2.9375 17.1875 -2.9375 17.1875 -5 16 C-6 13 -6 13 -5 10 C-5.66 10 -6.32 10 -7 10 C-7.33 8.35 -7.66 6.7 -8 5 C-6.34385343 4.61781233 -4.67542976 4.28604898 -3 4 C-2.67 4.33 -2.34 4.66 -2 5 C-1.855625 4.360625 -1.71125 3.72125 -1.5625 3.0625 C-1 1 -1 1 0 0 Z " fill="#498A58" transform="translate(30,3)"/>
<path d="M0 0 C0.66 0.33 1.32 0.66 2 1 C1.67 1.66 1.34 2.32 1 3 C1.66 3.66 2.32 4.32 3 5 C1.71034824 6.37562854 0.37310707 7.70766393 -1 9 C-1.66 9 -2.32 9 -3 9 C-3.103125 9.53625 -3.20625 10.0725 -3.3125 10.625 C-4.19428339 13.6711608 -5.41416174 16.25527994 -7 19 C-7.99 19.33 -8.98 19.66 -10 20 C-10 19.34 -10 18.68 -10 18 C-9.34 17.67 -8.68 17.34 -8 17 C-8.33 15.35 -8.66 13.7 -9 12 C-9 13.32 -9 14.64 -9 16 C-9.66 16 -10.32 16 -11 16 C-11 14.02 -11 12.04 -11 10 C-10.01 9.67 -9.02 9.34 -8 9 C-7.67 8.01 -7.34 7.02 -7 6 C-6.67 6 -6.34 6 -6 6 C-6 7.65 -6 9.3 -6 11 C-2.1334716 7.777893 -1.11940982 4.85077588 0 0 Z " fill="#DAB46C" transform="translate(29,21)"/>
<path d="M0 0 C0.66 0 1.32 0 2 0 C2.103125 0.61875 2.20625 1.2375 2.3125 1.875 C2.87525373 4.36526484 2.87525373 4.36526484 6 6 C5.67 10.29 5.34 14.58 5 19 C4.67 18.34 4.34 17.68 4 17 C3.34 17 2.68 17 2 17 C2 16.34 2 15.68 2 15 C2.66 15 3.32 15 4 15 C4 14.34 4 13.68 4 13 C2.68 13 1.36 13 0 13 C-2 10 -2 10 -2 7 C-1.34 7 -0.68 7 0 7 C0 4.69 0 2.38 0 0 Z " fill="#88BC99" transform="translate(2,29)"/>
<path d="M0 0 C0 0.99 0 1.98 0 3 C-0.66 3 -1.32 3 -2 3 C-2 2.34 -2 1.68 -2 1 C-2.66 1 -3.32 1 -4 1 C-3.67 1.99 -3.34 2.98 -3 4 C-2.01 4.33 -1.02 4.66 0 5 C0.99 3.68 1.98 2.36 3 1 C3.61875 1.350625 4.2375 1.70125 4.875 2.0625 C5.57625 2.371875 6.2775 2.68125 7 3 C7.66 2.67 8.32 2.34 9 2 C8.67 2.99 8.34 3.98 8 5 C7.21625 4.95875 6.4325 4.9175 5.625 4.875 C2.83883881 4.71271266 2.83883881 4.71271266 1 7 C-1.00349261 6.68834559 -3.00326516 6.35236497 -5 6 C-6.67343448 6.29749946 -8.34305915 6.62127066 -10 7 C-11 6 -11 6 -11.0625 3.4375 C-11.041875 2.633125 -11.02125 1.82875 -11 1 C-10.34 1 -9.68 1 -9 1 C-9 1.66 -9 2.32 -9 3 C-8.34 3 -7.68 3 -7 3 C-7 2.34 -7 1.68 -7 1 C-4.53721199 -0.231394 -2.7204945 -0.07159196 0 0 Z " fill="#7CB28A" transform="translate(53,83)"/>
<path d="M0 0 C6.1796648 1.17200539 9.43966604 2.66768274 14 7 C13.01 7.495 13.01 7.495 12 8 C11.67 8.99 11.34 9.98 11 11 C10.01 10.67 9.02 10.34 8 10 C7.3125 7.9375 7.3125 7.9375 7 6 C6.67 6.66 6.34 7.32 6 8 C4.68 7.67 3.36 7.34 2 7 C2 6.01 2 5.02 2 4 C1.34 4.66 0.68 5.32 0 6 C0 4 0 2 0 0 Z " fill="#6A6667" transform="translate(54,11)"/>
<path d="M0 0 C1.65 0 3.3 0 5 0 C5 0.66 5 1.32 5 2 C4.34 2 3.68 2 3 2 C3 2.66 3 3.32 3 4 C3.66 4 4.32 4 5 4 C6.4783226 6.95664519 6.06032783 9.74229737 6 13 C4.35 12.67 2.7 12.34 1 12 C-0.47075246 7.58774263 -1.36884358 4.51718381 0 0 Z " fill="#418F55" transform="translate(1,42)"/>
<path d="M0 0 C0.3403125 0.9590625 0.3403125 0.9590625 0.6875 1.9375 C1.120625 2.618125 1.55375 3.29875 2 4 C2.825 4.165 3.65 4.33 4.5 4.5 C7 5 7 5 8.375 6.8125 C9.08724082 9.30534286 8.86172797 10.58716168 8 13 C7.34 13 6.68 13 6 13 C6 14.65 6 16.3 6 18 C5.67 18 5.34 18 5 18 C4.896875 17.21625 4.79375 16.4325 4.6875 15.625 C4.22404978 12.66954819 4.22404978 12.66954819 1 11 C0.95615553 9.33391013 0.9603287 7.66619446 1 6 C0.34870203 4.65909241 -0.31513275 3.32407669 -1 2 C-0.67 1.34 -0.34 0.68 0 0 Z " fill="#74AD83" transform="translate(1,50)"/>
<path d="M0 0 C0.33 0.99 0.66 1.98 1 3 C0.67 3.66 0.34 4.32 0 5 C-0.66 5 -1.32 5 -2 5 C-2.66 6.65 -3.32 8.3 -4 10 C-4.66 10 -5.32 10 -6 10 C-6 10.66 -6 11.32 -6 12 C-12.68650564 13.48725585 -18.23893038 14.27567351 -25 13 C-25 12.67 -25 12.34 -25 12 C-24.14277344 11.90203125 -23.28554688 11.8040625 -22.40234375 11.703125 C-13.87961774 10.58854076 -7.81626208 9.50788123 -2.0625 2.75 C-1.381875 1.8425 -0.70125 0.935 0 0 Z " fill="#F7F8F4" transform="translate(64,55)"/>
<path d="M0 0 C1.32 0.33 2.64 0.66 4 1 C4 1.66 4 2.32 4 3 C3.34 3 2.68 3 2 3 C2 3.66 2 4.32 2 5 C2.66 5 3.32 5 4 5 C3.01 7.97 2.02 10.94 1 14 C-0.32 13.34 -1.64 12.68 -3 12 C-3.43200679 7.24792529 -1.98489083 4.21789302 0 0 Z " fill="#529964" transform="translate(7,21)"/>
<path d="M0 0 C0.33 0.66 0.66 1.32 1 2 C1.99 2 2.98 2 4 2 C4 1.34 4 0.68 4 0 C6.97 0.99 9.94 1.98 13 3 C12.34 4.32 11.68 5.64 11 7 C10.01 7.33 9.02 7.66 8 8 C7.34 7.34 6.68 6.68 6 6 C4.33382885 5.95936168 2.66611905 5.957279 1 6 C0 5 0 5 -0.0625 2.4375 C-0.041875 1.633125 -0.02125 0.82875 0 0 Z " fill="#39894C" transform="translate(22,79)"/>
<path d="M0 0 C0.33 1.32 0.66 2.64 1 4 C2.65 4.33 4.3 4.66 6 5 C6.33 6.65 6.66 8.3 7 10 C7.66 10 8.32 10 9 10 C9 11.98 9 13.96 9 16 C7.68 16.33 6.36 16.66 5 17 C3 14 3 14 3 10 C3.66 10 4.32 10 5 10 C4.67 8.68 4.34 7.36 4 6 C2.35 6 0.7 6 -1 6 C-0.67 4.02 -0.34 2.04 0 0 Z " fill="#69A679" transform="translate(74,11)"/>
<path d="M0 0 C0.66 0.33 1.32 0.66 2 1 C1.125 5.875 1.125 5.875 0 7 C1.32 7.33 2.64 7.66 4 8 C3.54625 8.37125 3.0925 8.7425 2.625 9.125 C0.52970606 11.54264685 -0.12013285 13.95430602 -1 17 C-4 13.375 -4 13.375 -4 10 C-3.34 10 -2.68 10 -2 10 C-2.66 7.36 -3.32 4.72 -4 2 C-3.34 2 -2.68 2 -2 2 C-2 2.66 -2 3.32 -2 4 C-1.34 4 -0.68 4 0 4 C0 2.68 0 1.36 0 0 Z " fill="#E8D4AB" transform="translate(20,33)"/>
<path d="M0 0 C1.49080078 0.02707031 1.49080078 0.02707031 3.01171875 0.0546875 C3.77097656 0.07789062 4.53023437 0.10109375 5.3125 0.125 C5.3125 1.115 5.3125 2.105 5.3125 3.125 C-0.4375 4.125 -0.4375 4.125 -2.6875 4.125 C-2.6875 4.785 -2.6875 5.445 -2.6875 6.125 C-4.9975 5.795 -7.3075 5.465 -9.6875 5.125 C-7.93798051 -0.12355846 -4.97877546 -0.11714766 0 0 Z " fill="#F5A33B" transform="translate(112.6875,19.875)"/>
<path d="M0 0 C-0.33 0.66 -0.66 1.32 -1 2 C-3.66015625 2.59765625 -3.66015625 2.59765625 -7.0625 3.0625 C-8.23296875 3.22621094 -9.4034375 3.38992188 -10.609375 3.55859375 C-11.72828125 3.70425781 -12.8471875 3.84992187 -14 4 C-15.30710937 4.17208984 -15.30710937 4.17208984 -16.640625 4.34765625 C-18.42577246 4.57561573 -20.2126829 4.7897274 -22 5 C-22.33 4.34 -22.66 3.68 -23 3 C-15.43379073 -0.3380335 -8.1317821 -0.11842401 0 0 Z " fill="#F9FAF9" transform="translate(51,7)"/>
<path d="M0 0 C0.66 0 1.32 0 2 0 C2.12375 0.86625 2.12375 0.86625 2.25 1.75 C2.8695627 4.1677051 2.8695627 4.1677051 5 6 C7.0819403 8.0819403 7.59208304 9.14458129 8 12 C7.484375 11.525625 6.96875 11.05125 6.4375 10.5625 C3.98390715 8.74259802 3.98390715 8.74259802 0.5 8.5625 C-3.42366261 7.93191137 -4.55589942 7.03068472 -7 4 C-6.67 3.34 -6.34 2.68 -6 2 C-5.01 2.99 -4.02 3.98 -3 5 C-2.34 4.67 -1.68 4.34 -1 4 C-0.67 4.33 -0.34 4.66 0 5 C0 3.35 0 1.7 0 0 Z " fill="#D7AF63" transform="translate(23,55)"/>
<path d="M0 0 C0.33 0 0.66 0 1 0 C1 1.98 1 3.96 1 6 C1.66 5.34 2.32 4.68 3 4 C3.66 4 4.32 4 5 4 C5.99 3.34 6.98 2.68 8 2 C6.5404114 5.8480063 4.66100886 7.21206544 1 9 C-0.66194453 9.35613097 -2.328451 9.69208308 -4 10 C-4.99 10.66 -5.98 11.32 -7 12 C-5.125 7.25 -5.125 7.25 -4 5 C-3.34 5 -2.68 5 -2 5 C-1.34 3.35 -0.68 1.7 0 0 Z " fill="#D7B064" transform="translate(66,55)"/>
<path d="M0 0 C1.67542976 0.28604898 3.34385343 0.61781233 5 1 C5.33 1.99 5.66 2.98 6 4 C5.01 5.485 5.01 5.485 4 7 C3.83286431 9.62531524 3.83286431 9.62531524 4 12 C3.34 12 2.68 12 2 12 C1.896875 11.38125 1.79375 10.7625 1.6875 10.125 C1.12474627 7.63473516 1.12474627 7.63473516 -2 6 C-1.125 1.125 -1.125 1.125 0 0 Z " fill="#6BA77A" transform="translate(84,49)"/>
<path d="M0 0 C1.98 0.99 1.98 0.99 4 2 C4 1.34 4 0.68 4 0 C4.99 0 5.98 0 7 0 C7.19477739 1.62414378 7.38059458 3.24936423 7.5625 4.875 C7.66691406 5.77992187 7.77132813 6.68484375 7.87890625 7.6171875 C8 10 8 10 7 12 C6.67 11.01 6.34 10.02 6 9 C5.360625 8.7525 4.72125 8.505 4.0625 8.25 C2 7 2 7 0.75 3.375 C0.5025 2.26125 0.255 1.1475 0 0 Z " fill="#E7D0A3" transform="translate(16,50)"/>
<path d="M0 0 C4.70588235 0.70588235 4.70588235 0.70588235 6 2 C6.33 1.34 6.66 0.68 7 0 C9.62187494 1.04874998 10.79371361 1.64931313 12.25 4.125 C12.4975 4.74375 12.745 5.3625 13 6 C11.35 5.67 9.7 5.34 8 5 C8 6.65 8 8.3 8 10 C7.67 9.34 7.34 8.68 7 8 C6.34 8 5.68 8 5 8 C5 7.01 5 6.02 5 5 C4.34 4.67 3.68 4.34 3 4 C3 3.34 3 2.68 3 2 C1.68 1.67 0.36 1.34 -1 1 C-0.67 0.67 -0.34 0.34 0 0 Z " fill="#F5B3AE" transform="translate(43,29)"/>
<path d="M0 0 C-0.33 2.97 -0.66 5.94 -1 9 C-0.34 9 0.32 9 1 9 C0.67 10.32 0.34 11.64 0 13 C-1.32 12.67 -2.64 12.34 -4 12 C-3.67 11.34 -3.34 10.68 -3 10 C-3.66 9.67 -4.32 9.34 -5 9 C-4.01 8.67 -3.02 8.34 -2 8 C-2.63979849 5.96758273 -2.63979849 5.96758273 -4 4 C-6.55519921 3.18828772 -6.55519921 3.18828772 -9 3 C-7.14340032 -0.71319936 -3.69365381 -0.09982848 0 0 Z " fill="#F8CCC8" transform="translate(52,42)"/>
<path d="M0 0 C1.65 0 3.3 0 5 0 C5 1.65 5 3.3 5 5 C6.65 5.33 8.3 5.66 10 6 C10 7.32 10 8.64 10 10 C9.34 10 8.68 10 8 10 C7.67 10.66 7.34 11.32 7 12 C5.02 9.36 3.04 6.72 1 4 C1.66 4 2.32 4 3 4 C3 3.34 3 2.68 3 2 C2.01 2 1.02 2 0 2 C0 1.34 0 0.68 0 0 Z " fill="#2F8243" transform="translate(69,11)"/>
<path d="M0 0 C1.2890625 1.53125 1.2890625 1.53125 2.625 3.5 C3.07101563 4.1496875 3.51703125 4.799375 3.9765625 5.46875 C4.31429688 5.9740625 4.65203125 6.479375 5 7 C4.34 7 3.68 7 3 7 C3 7.66 3 8.32 3 9 C3.99 9 4.98 9 6 9 C6 9.66 6 10.32 6 11 C4.35 11 2.7 11 1 11 C1 9.35 1 7.7 1 6 C-0.65 6 -2.3 6 -4 6 C-4 4.35 -4 2.7 -4 1 C-2 0 -2 0 0 0 Z " fill="#2F8143" transform="translate(15,68)"/>
<path d="M0 0 C2.375 0 2.375 0 5 1 C6.8125 4.5625 6.8125 4.5625 8 8 C4.38970831 8 1.44193324 7.03907418 -2 6 C-1.125 1.125 -1.125 1.125 0 0 Z " fill="#D8612C" transform="translate(101,33)"/>
<path d="M0 0 C0.66 0 1.32 0 2 0 C2 1.32 2 2.64 2 4 C2.66 4 3.32 4 4 4 C4 5.98 4 7.96 4 10 C4.66 10 5.32 10 6 10 C5.125 14.75 5.125 14.75 4 17 C4.66 17 5.32 17 6 17 C5.67 18.32 5.34 19.64 5 21 C4.34 20.67 3.68 20.34 3 20 C2.37400757 16.61964088 2 13.43830115 2 10 C1.67 9.34 1.34 8.68 1 8 C1.66 8 2.32 8 3 8 C3 7.34 3 6.68 3 6 C2.01 5.67 1.02 5.34 0 5 C0 3.35 0 1.7 0 0 Z " fill="#F3E8D2" transform="translate(68,33)"/>
<path d="M0 0 C0.99 0.33 1.98 0.66 3 1 C2.34 1 1.68 1 1 1 C1.66 4.63 2.32 8.26 3 12 C2.34 12 1.68 12 1 12 C0.67 9.69 0.34 7.38 0 5 C0 6.32 0 7.64 0 9 C-0.99 9 -1.98 9 -3 9 C-5.1875 6.5 -5.1875 6.5 -7 4 C-6.01 4 -5.02 4 -4 4 C-4 3.01 -4 2.02 -4 1 C-3.67 1.66 -3.34 2.32 -3 3 C-2.34 3 -1.68 3 -1 3 C-0.67 2.01 -0.34 1.02 0 0 Z " fill="#EEEAE5" transform="translate(61,16)"/>
<path d="M0 0 C0.66 0 1.32 0 2 0 C2.33 0.66 2.66 1.32 3 2 C4.65 1.67 6.3 1.34 8 1 C5.76152748 4.35770877 5.59041601 4.2145965 2 5 C1.34 5.66 0.68 6.32 0 7 C-2.3828125 6.7578125 -2.3828125 6.7578125 -5.125 6.125 C-6.49011719 5.81949219 -6.49011719 5.81949219 -7.8828125 5.5078125 C-8.58148438 5.34023437 -9.28015625 5.17265625 -10 5 C-10 4.67 -10 4.34 -10 4 C-8.35 4 -6.7 4 -5 4 C-4.67 3.34 -4.34 2.68 -4 2 C-3.34 2 -2.68 2 -2 2 C-1.34 1.34 -0.68 0.68 0 0 Z " fill="#F0E2C5" transform="translate(63,63)"/>
<path d="M0 0 C0.8971875 0.495 0.8971875 0.495 1.8125 1 C4.05386471 2.20787988 4.05386471 2.20787988 7 2 C7 2.66 7 3.32 7 4 C8.65 4 10.3 4 12 4 C12 4.33 12 4.66 12 5 C8.37 5.66 4.74 6.32 1 7 C0.67 6.34 0.34 5.68 0 5 C-1.2375 4.505 -1.2375 4.505 -2.5 4 C-5 3 -5 3 -6 1 C-3.525 1.495 -3.525 1.495 -1 2 C-0.67 1.34 -0.34 0.68 0 0 Z " fill="#F0E1C4" transform="translate(25,63)"/>
<path d="M0 0 C0 3.63 0 7.26 0 11 C-4 9 -4 9 -5 8 C-5.30813578 5.07271007 -5.43574835 3.57439555 -3.625 1.1875 C-2 0 -2 0 0 0 Z " fill="#F09738" transform="translate(284,44)"/>
<path d="M0 0 C0.66 0.33 1.32 0.66 2 1 C1.625 2.9375 1.625 2.9375 1 5 C0.01 5.495 0.01 5.495 -1 6 C-1.99 5.34 -2.98 4.68 -4 4 C-5.32 5.32 -6.64 6.64 -8 8 C-8.99 7.34 -9.98 6.68 -11 6 C-11 5.01 -11 4.02 -11 3 C-10.34 3 -9.68 3 -9 3 C-9 3.66 -9 4.32 -9 5 C-8.34 5 -7.68 5 -7 5 C-6.67 3.68 -6.34 2.36 -6 1 C-5.01 1 -4.02 1 -3 1 C-3 1.66 -3 2.32 -3 3 C-2.01 3 -1.02 3 0 3 C0 2.01 0 1.02 0 0 Z " fill="#1A7731" transform="translate(60,81)"/>
<path d="M0 0 C0.33 0 0.66 0 1 0 C2.42258812 3.82320557 3.24042276 6.91281305 3 11 C1.02 11.99 1.02 11.99 -1 13 C-2.42944945 10.64561267 -3.08661261 9.51967567 -2.625 6.75 C-2.41875 6.1725 -2.2125 5.595 -2 5 C-1.34 5 -0.68 5 0 5 C0 3.35 0 1.7 0 0 Z " fill="#4D965F" transform="translate(83,22)"/>
<path d="M0 0 C0.66 0.99 1.32 1.98 2 3 C1.34 3.66 0.68 4.32 0 5 C0 6.32 0 7.64 0 9 C-2.31 9 -4.62 9 -7 9 C-6.82374165 6.62051228 -6.30280227 5.29774151 -4.59765625 3.62109375 C-3.09350908 2.37884514 -1.54870149 1.18623944 0 0 Z " fill="#2F8345" transform="translate(74,70)"/>
<path d="M0 0 C0.66 0 1.32 0 2 0 C2 1.32 2 2.64 2 4 C2.66 4.33 3.32 4.66 4 5 C4 6.32 4 7.64 4 9 C4.2981424 10.34164079 4.62243192 11.67851173 5 13 C3.68 11.68 2.36 10.36 1 9 C0.67 10.98 0.34 12.96 0 15 C-0.33 15 -0.66 15 -1 15 C-1.02693575 12.87506859 -1.04636628 10.75004088 -1.0625 8.625 C-1.07410156 7.44164062 -1.08570312 6.25828125 -1.09765625 5.0390625 C-1 2 -1 2 0 0 Z " fill="#CCBB7F" transform="translate(67,34)"/>
<path d="M0 0 C0.66 0 1.32 0 2 0 C2 0.66 2 1.32 2 2 C4.01822917 2.16276042 6.03645833 2.32552083 8.0546875 2.48828125 C10 3 10 3 12 6 C11.01 6 10.02 6 9 6 C9.99 6.66 10.98 7.32 12 8 C11.67 8.66 11.34 9.32 11 10 C4.125 6.25 4.125 6.25 3 4 C2.01 3.67 1.02 3.34 0 3 C0 2.01 0 1.02 0 0 Z " fill="#DFC593" transform="translate(46,15)"/>
<path d="M0 0 C3.37462715 0.54723683 5.08235 1.0549 8 3 C8 3.99 8 4.98 8 6 C7.01 6 6.02 6 5 6 C4.34 6.66 3.68 7.32 3 8 C1.31503702 7.03114628 -0.35178756 6.03013277 -2 5 C-2 4.67 -2 4.34 -2 4 C-0.35 4 1.3 4 3 4 C3 3.34 3 2.68 3 2 C2.01 2 1.02 2 0 2 C0 1.34 0 0.68 0 0 Z " fill="#80B28C" transform="translate(18,75)"/>
<path d="M0 0 C2.64 0.33 5.28 0.66 8 1 C8 2.32 8 3.64 8 5 C5.69 5.33 3.38 5.66 1 6 C0.67 4.02 0.34 2.04 0 0 Z " fill="#D14D29" transform="translate(132,38)"/>
<path d="M0 0 C1.32 0.33 2.64 0.66 4 1 C2.68 3.64 1.36 6.28 0 9 C-1.98 9 -3.96 9 -6 9 C-5.67 8.34 -5.34 7.68 -5 7 C-4.34 7 -3.68 7 -3 7 C-3 6.34 -3 5.68 -3 5 C-3.66 4.67 -4.32 4.34 -5 4 C-4.0409375 3.8453125 -4.0409375 3.8453125 -3.0625 3.6875 C-2.381875 3.460625 -1.70125 3.23375 -1 3 C-0.67 2.01 -0.34 1.02 0 0 Z " fill="#EC6764" transform="translate(51,34)"/>
<path d="M0 0 C1.98 0 3.96 0 6 0 C5.34 1.98 4.68 3.96 4 6 C2.02 6 0.04 6 -2 6 C-1.34 4.02 -0.68 2.04 0 0 Z " fill="#E78134" transform="translate(253,45)"/>
<path d="M0 0 C0.66 0.33 1.32 0.66 2 1 C2 1.66 2 2.32 2 3 C1.113125 3.53625 0.22625 4.0725 -0.6875 4.625 C-4.78854157 7.19421044 -6.66495953 10.87983801 -9 15 C-9.66 15.99 -10.32 16.98 -11 18 C-12 16 -12 16 -11.50390625 14.08203125 C-8.88762386 7.77472806 -5.42073004 4.09186175 0 0 Z " fill="#EDEFE4" transform="translate(34,23)"/>
<path d="M0 0 C2.64 0 5.28 0 8 0 C8 1.98 8 3.96 8 6 C6.35 6.33 4.7 6.66 3 7 C2.814375 5.824375 2.814375 5.824375 2.625 4.625 C2.20882007 1.85942178 2.20882007 1.85942178 0 0 Z " fill="#8D8A8A" transform="translate(41,9)"/>
<path d="M0 0 C0.66 0.99 1.32 1.98 2 3 C2.99 2.67 3.98 2.34 5 2 C4.45276317 5.37462715 3.9451 7.08235 2 10 C1.01 10 0.02 10 -1 10 C-1 9.34 -1 8.68 -1 8 C-0.34 8 0.32 8 1 8 C1 7.34 1 6.68 1 6 C0.34 6 -0.32 6 -1 6 C-0.67 4.02 -0.34 2.04 0 0 Z " fill="#74AA81" transform="translate(10,16)"/>
<path d="M0 0 C-0.33 0.66 -0.66 1.32 -1 2 C-1.66 1.67 -2.32 1.34 -3 1 C-3.99 1.495 -3.99 1.495 -5 2 C-5.33 2.99 -5.66 3.98 -6 5 C-5.34 5 -4.68 5 -4 5 C-4 4.34 -4 3.68 -4 3 C-3.01 3 -2.02 3 -1 3 C-1.33 3.99 -1.66 4.98 -2 6 C-5.63 6 -9.26 6 -13 6 C-12.34 5.67 -11.68 5.34 -11 5 C-11 4.34 -11 3.68 -11 3 C-10.34 3 -9.68 3 -9 3 C-9 3.66 -9 4.32 -9 5 C-8.34 5 -7.68 5 -7 5 C-6.814375 3.7934375 -6.814375 3.7934375 -6.625 2.5625 C-6.41875 1.716875 -6.2125 0.87125 -6 0 C-3.50907189 -1.24546405 -2.58919267 -0.7767578 0 0 Z " fill="#95C5A7" transform="translate(55,1)"/>
<path d="M0 0 C3.875 3.75 3.875 3.75 5 6 C5.66 5.67 6.32 5.34 7 5 C6.0022242 7.99332739 5.2477975 8.94766315 3 11 C2.01 10.67 1.02 10.34 0 10 C0 9.01 0 8.02 0 7 C-0.66 6.01 -1.32 5.02 -2 4 C-1.01 4 -0.02 4 1 4 C0.67 2.68 0.34 1.36 0 0 Z " fill="#EBE6DC" transform="translate(29,14)"/>
<path d="M0 0 C0.66 0.33 1.32 0.66 2 1 C2 3.83967231 1.59732819 6.23735711 1 9 C-0.32 8.34 -1.64 7.68 -3 7 C-3 3 -3 3 -1.5 1.25 C-1.005 0.8375 -0.51 0.425 0 0 Z " fill="#686565" transform="translate(22,17)"/>
<path d="M0 0 C0.66 0.66 1.32 1.32 2 2 C-0.64 2.33 -3.28 2.66 -6 3 C-6 3.66 -6 4.32 -6 5 C-6.66 5 -7.32 5 -8 5 C-8 4.34 -8 3.68 -8 3 C-9.32 2.34 -10.64 1.68 -12 1 C-7.99047425 -0.33650858 -4.17983803 -0.20225023 0 0 Z " fill="#AED8BE" transform="translate(52,81)"/>
<path d="M0 0 C3.63 0 7.26 0 11 0 C11 0.99 11 1.98 11 3 C7.37 3 3.74 3 0 3 C0 2.01 0 1.02 0 0 Z " fill="#858081" transform="translate(35,59)"/>
<path d="M0 0 C2.31 0 4.62 0 7 0 C7.33 1.32 7.66 2.64 8 4 C5.36 4 2.72 4 0 4 C0 2.68 0 1.36 0 0 Z " fill="#F09838" transform="translate(279,28)"/>
<path d="M0 0 C2.10827055 3.16240582 2.33817465 4.50657469 2.625 8.1875 C2.69976562 9.08855469 2.77453125 9.98960938 2.8515625 10.91796875 C2.90054687 11.60503906 2.94953125 12.29210938 3 13 C1.68 12.67 0.36 12.34 -1 12 C-1.02712066 10.56260487 -1.04645067 9.12506137 -1.0625 7.6875 C-1.07410156 6.88699219 -1.08570313 6.08648437 -1.09765625 5.26171875 C-1 3 -1 3 0 0 Z " fill="#E0702D" transform="translate(303,43)"/>
<path d="M0 0 C0 2.31 0 4.62 0 7 C-0.66 7 -1.32 7 -2 7 C-2 7.66 -2 8.32 -2 9 C-1.34 9.33 -0.68 9.66 0 10 C-1.65 10.33 -3.3 10.66 -5 11 C-4.34 8.03 -3.68 5.06 -3 2 C-3.66 1.67 -4.32 1.34 -5 1 C-2 0 -2 0 0 0 Z " fill="#EB5F5D" transform="translate(44,32)"/>
<path d="M0 0 C0.99 0.66 1.98 1.32 3 2 C2.01 2.33 1.02 2.66 0 3 C-0.33 3.99 -0.66 4.98 -1 6 C-0.34 6 0.32 6 1 6 C1.33 7.98 1.66 9.96 2 12 C1.01 12 0.02 12 -1 12 C-1.41713515 10.56853622 -1.8080497 9.12941114 -2.1875 7.6875 C-2.40792969 6.88699219 -2.62835938 6.08648437 -2.85546875 5.26171875 C-3 3 -3 3 -1.55078125 1.20703125 C-1.03902344 0.80871094 -0.52726562 0.41039063 0 0 Z " fill="#F18B87" transform="translate(38,29)"/>
<path d="M0 0 C1.65 0 3.3 0 5 0 C5.66 1.65 6.32 3.3 7 5 C4.69 5.66 2.38 6.32 0 7 C0.185625 6.21625 0.37125 5.4325 0.5625 4.625 C1.25962266 2.02910225 1.25962266 2.02910225 0 0 Z " fill="#F4A7A2" transform="translate(43,45)"/>
<path d="M0 0 C1.65 0 3.3 0 5 0 C5.38218767 1.65614657 5.71395102 3.32457024 6 5 C5 6 5 6 2.4375 6.0625 C1.2309375 6.0315625 1.2309375 6.0315625 0 6 C0 5.34 0 4.68 0 4 C0.66 4 1.32 4 2 4 C2 3.34 2 2.68 2 2 C1.34 2 0.68 2 0 2 C0 1.34 0 0.68 0 0 Z " fill="#46925A" transform="translate(84,42)"/>
<path d="M0 0 C0.66 0.33 1.32 0.66 2 1 C1.25 3.4375 1.25 3.4375 0 6 C-2.0625 6.625 -2.0625 6.625 -4 7 C-4.33 7.99 -4.66 8.98 -5 10 C-5.33 8.02 -5.66 6.04 -6 4 C-5.34 3.67 -4.68 3.34 -4 3 C-4 2.34 -4 1.68 -4 1 C-3.34 1 -2.68 1 -2 1 C-2 1.99 -2 2.98 -2 4 C-1.34 4 -0.68 4 0 4 C0 2.68 0 1.36 0 0 Z " fill="#99C4A6" transform="translate(79,69)"/>
<path d="M0 0 C6.31311276 1.34321548 10.79608336 4.24751589 16 8 C15.01 8.495 15.01 8.495 14 9 C8.71836201 6.98488028 3.61783413 4.44006916 0 0 Z " fill="#585454" transform="translate(17,69)"/>
<path d="M0 0 C0.33 0 0.66 0 1 0 C1.33 1.98 1.66 3.96 2 6 C1.01 6.495 1.01 6.495 0 7 C-0.66 6.67 -1.32 6.34 -2 6 C-2 7.32 -2 8.64 -2 10 C-2.66 10 -3.32 10 -4 10 C-4 8.02 -4 6.04 -4 4 C-3.01 3.67 -2.02 3.34 -1 3 C-0.67 2.01 -0.34 1.02 0 0 Z " fill="#DEBE81" transform="translate(22,27)"/>
<path d="M0 0 C1.31896465 0.92838287 2.62998689 1.86805732 3.9375 2.8125 C4.66839844 3.33457031 5.39929687 3.85664063 6.15234375 4.39453125 C8 6 8 6 9 9 C9.66 9.33 10.32 9.66 11 10 C10.34 11.32 9.68 12.64 9 14 C8.60167969 13.37351562 8.20335938 12.74703125 7.79296875 12.1015625 C7.26316406 11.28429688 6.73335937 10.46703125 6.1875 9.625 C5.66542969 8.81289063 5.14335938 8.00078125 4.60546875 7.1640625 C3.01562803 4.76649759 3.01562803 4.76649759 0 3 C0 2.01 0 1.02 0 0 Z " fill="#EAEADA" transform="translate(56,24)"/>
<path d="M0 0 C0.66 0.33 1.32 0.66 2 1 C-4.1971831 6.49295775 -4.1971831 6.49295775 -8 7 C-9.11375 7.2784375 -9.11375 7.2784375 -10.25 7.5625 C-10.8275 7.706875 -11.405 7.85125 -12 8 C-8.43396781 4.16981728 -4.98293799 1.66097933 0 0 Z " fill="#514D4D" transform="translate(69,70)"/>
<path d="M0 0 C5.75 3.625 5.75 3.625 8 7 C7.625 9.1875 7.625 9.1875 7 11 C7 10.34 7 9.68 7 9 C6.34 9 5.68 9 5 9 C4.34 7.35 3.68 5.7 3 4 C2.34 4 1.68 4 1 4 C0.67 2.68 0.34 1.36 0 0 Z " fill="#D14D29" transform="translate(295,31)"/>
<path d="M0 0 C0.66 0 1.32 0 2 0 C2.268125 1.093125 2.53625 2.18625 2.8125 3.3125 C3.92412456 6.7643868 4.41715346 7.75404649 7 10 C7.33 10.99 7.66 11.98 8 13 C7.01 12.67 6.02 12.34 5 12 C5 11.01 5 10.02 5 9 C4.38125 8.731875 3.7625 8.46375 3.125 8.1875 C1 7 1 7 -1 4 C-0.34 3.67 0.32 3.34 1 3 C0.67 2.01 0.34 1.02 0 0 Z " fill="#D9B46C" transform="translate(59,21)"/>
<path d="M0 0 C0.99 0.33 1.98 0.66 3 1 C-2.14285714 7.57142857 -2.14285714 7.57142857 -6 9 C-5.52797514 4.75177626 -3.03344482 2.80010291 0 0 Z " fill="#D6DED7" transform="translate(72,68)"/>
<path d="M0 0 C6.625 -0.25 6.625 -0.25 10 2 C7.04335481 3.4783226 4.25770263 3.06032783 1 3 C0.67 2.01 0.34 1.02 0 0 Z " fill="#D6AE61" transform="translate(53,68)"/>
<path d="M0 0 C-0.33 0.99 -0.66 1.98 -1 3 C-4.375 3.125 -4.375 3.125 -8 3 C-8.66 2.34 -9.32 1.68 -10 1 C-6.52674819 -0.1577506 -3.63932552 -0.06866652 0 0 Z " fill="#D6AE61" transform="translate(37,68)"/>
<path d="M0 0 C1.98 0.495 1.98 0.495 4 1 C3.34 3.31 2.68 5.62 2 8 C1.01 7.67 0.02 7.34 -1 7 C-0.67 4.69 -0.34 2.38 0 0 Z " fill="#F8C9C6" transform="translate(38,42)"/>
<path d="M0 0 C2.97 0.495 2.97 0.495 6 1 C5.67 2.65 5.34 4.3 5 6 C4.67 5.34 4.34 4.68 4 4 C2.02 4 0.04 4 -2 4 C-1.34 2.68 -0.68 1.36 0 0 Z " fill="#EA8C35" transform="translate(135,28)"/>
<path d="M0 0 C1.98 0 3.96 0 6 0 C6 1.32 6 2.64 6 4 C5.01 4.495 5.01 4.495 4 5 C4 4.34 4 3.68 4 3 C2.35 2.67 0.7 2.34 -1 2 C-0.67 1.34 -0.34 0.68 0 0 Z " fill="#F29B39" transform="translate(137,26)"/>
<path d="M0 0 C0.66 1.65 1.32 3.3 2 5 C1.01 5 0.02 5 -1 5 C-0.67 5.66 -0.34 6.32 0 7 C-1.9375 6.1875 -1.9375 6.1875 -4 5 C-4.33 4.01 -4.66 3.02 -5 2 C-2 0 -2 0 0 0 Z " fill="#5C595A" transform="translate(29,14)"/>
<path d="M0 0 C1.32 0 2.64 0 4 0 C4 1.98 4 3.96 4 6 C2.02 6.99 2.02 6.99 0 8 C-0.33 7.01 -0.66 6.02 -1 5 C-0.34 5 0.32 5 1 5 C0.67 3.35 0.34 1.7 0 0 Z " fill="#E4E1DD" transform="translate(38,11)"/>
<path d="M0 0 C0 0.66 0 1.32 0 2 C-2.64 2.33 -5.28 2.66 -8 3 C-8.33 2.34 -8.66 1.68 -9 1 C-5.57367167 -0.61798838 -3.61944899 -1.34053666 0 0 Z " fill="#E8EDE9" transform="translate(37,9)"/>
<path d="M0 0 C0.66 0.99 1.32 1.98 2 3 C2.98095748 4.01868662 3.97702078 5.02351983 5 6 C2.36 5.67 -0.28 5.34 -3 5 C-3 3.68 -3 2.36 -3 1 C-2.01 0.67 -1.02 0.34 0 0 Z " fill="#F8CEC8" transform="translate(41,50)"/>
<path d="M0 0 C0.66 0.33 1.32 0.66 2 1 C1.67 1.99 1.34 2.98 1 4 C1.66 4 2.32 4 3 4 C3 4.66 3 5.32 3 6 C1.35 5.67 -0.3 5.34 -2 5 C-2.33 3.68 -2.66 2.36 -3 1 C-2.01 0.67 -1.02 0.34 0 0 Z " fill="#4C935B" transform="translate(3,35)"/>
<path d="M0 0 C1.9375 0.375 1.9375 0.375 4 1 C4.33 1.66 4.66 2.32 5 3 C3.6875 4.5 3.6875 4.5 2 6 C1.01 6 0.02 6 -1 6 C-1 5.34 -1 4.68 -1 4 C-0.34 4 0.32 4 1 4 C0.67 2.68 0.34 1.36 0 0 Z " fill="#3F8B4F" transform="translate(85,35)"/>
<path d="M0 0 C0.66 0.33 1.32 0.66 2 1 C1.67 2.65 1.34 4.3 1 6 C0.34 6 -0.32 6 -1 6 C-1 6.66 -1 7.32 -1 8 C-1.66 8 -2.32 8 -3 8 C-3.33 6.02 -3.66 4.04 -4 2 C-3.34 2 -2.68 2 -2 2 C-2 2.66 -2 3.32 -2 4 C-1.34 4 -0.68 4 0 4 C0 2.68 0 1.36 0 0 Z " fill="#F1E3C7" transform="translate(20,33)"/>
<path d="M0 0 C2.475 0.495 2.475 0.495 5 1 C5.33 2.65 5.66 4.3 6 6 C3.5625 5.25 3.5625 5.25 1 4 C0.1875 1.875 0.1875 1.875 0 0 Z " fill="#E07530" transform="translate(286,28)"/>
<path d="M0 0 C2.66666667 0.66666667 5.33333333 1.33333333 8 2 C7.34 3.32 6.68 4.64 6 6 C3.96166576 4.7260411 1.96147874 3.38938077 0 2 C0 1.34 0 0.68 0 0 Z " fill="#DFE3E0" transform="translate(20,73)"/>
<path d="M0 0 C2.15377564 2.62198774 3.40072174 4.64404172 4 8 C3.01 8 2.02 8 1 8 C-1.1875 5.5 -1.1875 5.5 -3 3 C-2.01 3 -1.02 3 0 3 C0 2.01 0 1.02 0 0 Z " fill="#F6EEDE" transform="translate(57,17)"/>
<path d="M0 0 C2.31 0 4.62 0 7 0 C7 0.99 7 1.98 7 3 C4.69 3 2.38 3 0 3 C0 2.01 0 1.02 0 0 Z " fill="#807A7B" transform="translate(48,59)"/>
<path d="M0 0 C1.65 0 3.3 0 5 0 C5.66 1.32 6.32 2.64 7 4 C4.69 3.67 2.38 3.34 0 3 C0 2.01 0 1.02 0 0 Z " fill="#DC6C2E" transform="translate(132,35)"/>
<path d="M0 0 C1 2 1 2 1 6 C-1 8 -1 8 -3 9 C-3.33 7.02 -3.66 5.04 -4 3 C-3.01 3 -2.02 3 -1 3 C-0.67 2.01 -0.34 1.02 0 0 Z " fill="#EAD5AB" transform="translate(26,23)"/>
<path d="M0 0 C1.32 0.66 2.64 1.32 4 2 C3.34 3.32 2.68 4.64 2 6 C1.01 6 0.02 6 -1 6 C-0.835 5.195625 -0.67 4.39125 -0.5 3.5625 C0.03191839 1.2715557 0.03191839 1.2715557 0 0 Z " fill="#585657" transform="translate(68,19)"/>
<path d="M0 0 C2.125 0.9375 2.125 0.9375 4 2 C3.01 2.495 3.01 2.495 2 3 C1.67 3.99 1.34 4.98 1 6 C0.01 5.67 -0.98 5.34 -2 5 C-2 3.68 -2 2.36 -2 1 C-1.34 0.67 -0.68 0.34 0 0 Z " fill="#524F4F" transform="translate(64,16)"/>
<path d="M0 0 C2.64 0 5.28 0 8 0 C6.68 1.32 5.36 2.64 4 4 C4 3.34 4 2.68 4 2 C2.02 2.99 2.02 2.99 0 4 C0 2.68 0 1.36 0 0 Z " fill="#16732D" transform="translate(11,16)"/>
<path d="M0 0 C1.65 0 3.3 0 5 0 C5 1.65 5 3.3 5 5 C3.68 5 2.36 5 1 5 C1.66 4.67 2.32 4.34 3 4 C3 3.34 3 2.68 3 2 C2.01 2 1.02 2 0 2 C0 1.34 0 0.68 0 0 Z " fill="#15742D" transform="translate(69,11)"/>
<path d="M0 0 C1.98 0 3.96 0 6 0 C6 0.99 6 1.98 6 3 C4.02 3 2.04 3 0 3 C0 2.01 0 1.02 0 0 Z " fill="#E5EDED" transform="translate(47,78)"/>
<path d="M0 0 C1.32 0.66 2.64 1.32 4 2 C4 3.65 4 5.3 4 7 C2.35 6.67 0.7 6.34 -1 6 C-0.01 5.67 0.98 5.34 2 5 C2 4.01 2 3.02 2 2 C1.34 2 0.68 2 0 2 C0 1.34 0 0.68 0 0 Z " fill="#147229" transform="translate(82,55)"/>
<path d="M0 0 C1.98 0.495 1.98 0.495 4 1 C2.68 3.64 1.36 6.28 0 9 C-1.53445094 5.93109813 -0.54984289 3.29905734 0 0 Z " fill="#E94F4E" transform="translate(51,34)"/>
<path d="M0 0 C0.99 0 1.98 0 3 0 C3 0.66 3 1.32 3 2 C2.34 2 1.68 2 1 2 C1 2.66 1 3.32 1 4 C1.66 4 2.32 4 3 4 C2.34 5.32 1.68 6.64 1 8 C1 7.01 1 6.02 1 5 C0.34 5 -0.32 5 -1 5 C-0.67 3.35 -0.34 1.7 0 0 Z " fill="#10732B" transform="translate(8,22)"/>
<path d="M0 0 C0.99 0.33 1.98 0.66 3 1 C2.01 1.495 2.01 1.495 1 2 C1 2.66 1 3.32 1 4 C1.66 4.33 2.32 4.66 3 5 C1.02 5.99 1.02 5.99 -1 7 C-2 4 -2 4 -1.0625 1.8125 C-0.5365625 0.9153125 -0.5365625 0.9153125 0 0 Z " fill="#EEEDEC" transform="translate(66,19)"/>
<path d="M0 0 C0.99 0.66 1.98 1.32 3 2 C3 3.32 3 4.64 3 6 C2.34 5.67 1.68 5.34 1 5 C1.33 4.34 1.66 3.68 2 3 C1.01 3 0.02 3 -1 3 C-1 3.66 -1 4.32 -1 5 C-1.66 5 -2.32 5 -3 5 C-2.625 3.0625 -2.625 3.0625 -2 1 C-1.34 0.67 -0.68 0.34 0 0 Z " fill="#157129" transform="translate(52,1)"/>
<path d="M0 0 C0.66 0.33 1.32 0.66 2 1 C1.625 2.9375 1.625 2.9375 1 5 C0.01 5.495 0.01 5.495 -1 6 C-1.99 5.34 -2.98 4.68 -4 4 C-3.67 3.01 -3.34 2.02 -3 1 C-3 1.66 -3 2.32 -3 3 C-2.01 3 -1.02 3 0 3 C0 2.01 0 1.02 0 0 Z " fill="#096B1E" transform="translate(60,81)"/>
<path d="M0 0 C0.66 0.66 1.32 1.32 2 2 C1.34 2 0.68 2 0 2 C0 2.66 0 3.32 0 4 C0.99 4 1.98 4 3 4 C3 4.66 3 5.32 3 6 C1.35 6 -0.3 6 -2 6 C-1.125 1.125 -1.125 1.125 0 0 Z " fill="#0F6F26" transform="translate(18,73)"/>
<path d="M0 0 C0.66 0.33 1.32 0.66 2 1 C3.67654729 0.72057545 5.34608154 0.39171753 7 0 C5 3 5 3 1.875 3.6875 C0.92625 3.790625 -0.0225 3.89375 -1 4 C-1 1 -1 1 0 0 Z " fill="#D4A956" transform="translate(64,64)"/>
<path d="M0 0 C1.1446875 0.2475 1.1446875 0.2475 2.3125 0.5 C5.03596236 1.09145396 5.03596236 1.09145396 8 1 C8 1.99 8 2.98 8 4 C5.64828869 3.40138258 3.3140622 2.73075648 1 2 C0.67 1.34 0.34 0.68 0 0 Z " fill="#D4A957" transform="translate(19,64)"/>
<path d="M0 0 C2.64 0.33 5.28 0.66 8 1 C7.67 1.66 7.34 2.32 7 3 C5.02 3 3.04 3 1 3 C0.67 2.01 0.34 1.02 0 0 Z " fill="#D65D2B" transform="translate(132,38)"/>
<path d="M0 0 C1.98 0.495 1.98 0.495 4 1 C3.67 2.65 3.34 4.3 3 6 C2.34 6 1.68 6 1 6 C1 5.34 1 4.68 1 4 C0.34 4 -0.32 4 -1 4 C-0.67 2.68 -0.34 1.36 0 0 Z " fill="#F8CCC6" transform="translate(38,31)"/>
<path d="M0 0 C3.63 0 7.26 0 11 0 C11 0.99 11 1.98 11 3 C10.37351562 2.9278125 9.74703125 2.855625 9.1015625 2.78125 C8.28429687 2.6884375 7.46703125 2.595625 6.625 2.5 C5.81289062 2.4071875 5.00078125 2.314375 4.1640625 2.21875 C2.03087175 1.96647649 2.03087175 1.96647649 0 2 C0 1.34 0 0.68 0 0 Z " fill="#FCB040" transform="translate(107,20)"/>
<path d="M0 0 C2.475 0.495 2.475 0.495 5 1 C4.67 2.65 4.34 4.3 4 6 C3.01 5.67 2.02 5.34 1 5 C1.66 4.67 2.32 4.34 3 4 C3 3.34 3 2.68 3 2 C2.01 2 1.02 2 0 2 C0 1.34 0 0.68 0 0 Z " fill="#117027" transform="translate(63,7)"/>
<path d="M0 0 C0.99 0.66 1.98 1.32 3 2 C2.67 3.32 2.34 4.64 2 6 C1.01 5.67 0.02 5.34 -1 5 C-0.67 4.67 -0.34 4.34 0 4 C-0.66 3.67 -1.32 3.34 -2 3 C-2 2.34 -2 1.68 -2 1 C-1.34 0.67 -0.68 0.34 0 0 Z " fill="#147026" transform="translate(59,3)"/>
<path d="M0 0 C0.66 0 1.32 0 2 0 C1.67 1.32 1.34 2.64 1 4 C-0.32 4 -1.64 4 -3 4 C-3 3.01 -3 2.02 -3 1 C-2.01 1.33 -1.02 1.66 0 2 C0 1.34 0 0.68 0 0 Z " fill="#16732C" transform="translate(39,84)"/>
<path d="M0 0 C-0.33 1.32 -0.66 2.64 -1 4 C-2.98 3.34 -4.96 2.68 -7 2 C-5.26578631 -1.46842738 -3.40984787 -1.13661596 0 0 Z " fill="#FBE0DE" transform="translate(50,43)"/>
<path d="M0 0 C3.625 -0.1875 3.625 -0.1875 7 0 C3.81237635 2.12508244 1.73487777 2.5020163 -2 3 C-1.34 2.01 -0.68 1.02 0 0 Z " fill="#F8A93D" transform="translate(120,21)"/>
<path d="M0 0 C0.33 0.66 0.66 1.32 1 2 C0.34 2 -0.32 2 -1 2 C-0.67 3.65 -0.34 5.3 0 7 C-2.02054804 5.35830472 -4.02043058 3.69088222 -6 2 C-6 1.67 -6 1.34 -6 1 C-4.02 0.67 -2.04 0.34 0 0 Z " fill="#5A5556" transform="translate(33,11)"/>
<path d="M0 0 C1.65 0 3.3 0 5 0 C5.33 1.32 5.66 2.64 6 4 C5.34 4 4.68 4 4 4 C4 3.34 4 2.68 4 2 C2.02 2.99 2.02 2.99 0 4 C0 2.68 0 1.36 0 0 Z " fill="#18702C" transform="translate(16,11)"/>
<path d="M0 0 C0.99 0.33 1.98 0.66 3 1 C3 1.66 3 2.32 3 3 C2.01 3 1.02 3 0 3 C0 3.66 0 4.32 0 5 C0.66 5.33 1.32 5.66 2 6 C0.68 5.67 -0.64 5.34 -2 5 C-1.125 1.125 -1.125 1.125 0 0 Z " fill="#0D6E22" transform="translate(30,3)"/>
<path d="" fill="#2E3192" transform="translate(0,0)"/>
</svg>
